<svg width="25" height="25" viewBox="0 0 25 25" fill="none" xmlns="http://www.w3.org/2000/svg">
<path d="M9.5 15.9412C9.5 16.4934 9.05228 16.9412 8.5 16.9412C7.94772 16.9412 7.5 16.4934 7.5 15.9412C7.5 15.3889 7.94772 14.9412 8.5 14.9412C9.05228 14.9412 9.5 15.3889 9.5 15.9412Z" fill="#3A434B"/>
<path d="M9.5 11.9412C9.5 12.4934 9.05228 12.9412 8.5 12.9412C7.94772 12.9412 7.5 12.4934 7.5 11.9412C7.5 11.3889 7.94772 10.9412 8.5 10.9412C9.05228 10.9412 9.5 11.3889 9.5 11.9412Z" fill="#3A434B"/>
<path d="M13.5 15.9412C13.5 16.4934 13.0523 16.9412 12.5 16.9412C11.9477 16.9412 11.5 16.4934 11.5 15.9412C11.5 15.3889 11.9477 14.9412 12.5 14.9412C13.0523 14.9412 13.5 15.3889 13.5 15.9412Z" fill="#3A434B"/>
<path d="M13.5 11.9412C13.5 12.4934 13.0523 12.9412 12.5 12.9412C11.9477 12.9412 11.5 12.4934 11.5 11.9412C11.5 11.3889 11.9477 10.9412 12.5 10.9412C13.0523 10.9412 13.5 11.3889 13.5 11.9412Z" fill="#3A434B"/>
<path d="M17.5 11.9412C17.5 12.4934 17.0523 12.9412 16.5 12.9412C15.9477 12.9412 15.5 12.4934 15.5 11.9412C15.5 11.3889 15.9477 10.9412 16.5 10.9412C17.0523 10.9412 17.5 11.3889 17.5 11.9412Z" fill="#3A434B"/>
<path fill-rule="evenodd" clip-rule="evenodd" d="M12.5 5.69116C10.3833 5.69116 7.49144 5.87458 5.6865 6.00664C5.09249 6.0501 4.62445 6.51428 4.57621 7.10678C4.43699 8.81691 4.25 11.4829 4.25 13.4412C4.25 15.3994 4.43699 18.0654 4.57621 19.7755C4.62445 20.368 5.09249 20.8322 5.6865 20.8757C7.49145 21.0077 10.3833 21.1912 12.5 21.1912C14.6167 21.1912 17.5086 21.0077 19.3135 20.8757C19.9075 20.8322 20.3756 20.368 20.4238 19.7755C20.563 18.0654 20.75 15.3994 20.75 13.4412C20.75 11.4829 20.563 8.81691 20.4238 7.10678C20.3756 6.51428 19.9075 6.0501 19.3135 6.00664C17.5086 5.87458 14.6167 5.69116 12.5 5.69116ZM5.57704 4.51064C7.3828 4.37852 10.3231 4.19116 12.5 4.19116C14.6769 4.19116 17.6172 4.37852 19.423 4.51064C20.7533 4.60798 21.8105 5.65444 21.9188 6.98507C22.0582 8.69655 22.25 11.4161 22.25 13.4412C22.25 15.4662 22.0582 18.1858 21.9188 19.8973C21.8105 21.2279 20.7533 22.2743 19.423 22.3717C17.6172 22.5038 14.6769 22.6912 12.5 22.6912C10.3231 22.6912 7.3828 22.5038 5.57704 22.3717C4.2467 22.2743 3.18948 21.2279 3.08116 19.8973C2.94183 18.1858 2.75 15.4662 2.75 13.4412C2.75 11.4161 2.94183 8.69655 3.08116 6.98507C3.18948 5.65444 4.2467 4.60798 5.57704 4.51064Z" fill="#3A434B"/>
<path fill-rule="evenodd" clip-rule="evenodd" d="M9.5 3.19116C9.91421 3.19116 10.25 3.52695 10.25 3.94116V6.44116C10.25 6.85538 9.91421 7.19116 9.5 7.19116C9.08579 7.19116 8.75 6.85538 8.75 6.44116V3.94116C8.75 3.52695 9.08579 3.19116 9.5 3.19116Z" fill="#3A434B"/>
<path fill-rule="evenodd" clip-rule="evenodd" d="M15.5 3.19116C15.9142 3.19116 16.25 3.52695 16.25 3.94116L16.25 6.44116C16.25 6.85538 15.9142 7.19116 15.5 7.19116C15.0858 7.19116 14.75 6.85538 14.75 6.44116L14.75 3.94116C14.75 3.52695 15.0858 3.19116 15.5 3.19116Z" fill="#3A434B"/>
</svg>
