<svg width="21" height="16" viewBox="0 0 21 16" fill="none" xmlns="http://www.w3.org/2000/svg">
<path fill-rule="evenodd" clip-rule="evenodd" d="M19 8C19 6.5 18.8 4.4 18.7 3C18.6 2.4 18.2 1.9 17.6 1.9C15.8 1.8 12.8 1.6 10.6 1.6C8.4 1.6 5.4 1.8 3.6 1.9C2.9 1.9 2.4 2.4 2.3 3C2.2 4.4 2 6.5 2 8C2 9.5 2.2 11.6 2.3 13C2.4 13.6 2.8 14.1 3.4 14.1C5.2 14.2 8.2 14.4 10.4 14.4C12.6 14.4 15.6 14.2 17.4 14.1C18 14.1 18.5 13.6 18.5 13C18.8 11.6 19 9.5 19 8ZM20.2 2.8C20.3 4.3 20.5 6.4 20.5 8C20.5 9.6 20.3 11.7 20.2 13.2C20.1 14.5 19 15.6 17.7 15.7C15.8 15.8 12.8 16 10.5 16C8.2 16 5.2 15.8 3.4 15.7C2.1 15.6 1 14.6 0.9 13.2C0.7 11.7 0.5 9.6 0.5 8C0.5 6.4 0.7 4.3 0.8 2.8C0.9 1.5 2 0.4 3.3 0.3C5.2 0.2 8.2 0 10.5 0C12.8 0 15.8 0.2 17.6 0.3C19 0.5 20.1 1.5 20.2 2.8ZM3.8 8C3.8 8.4 4.1 8.8 4.6 8.8H13.2C13.6 8.8 14 8.5 14 8C14 7.6 13.7 7.2 13.2 7.2H4.6C4.1 7.2 3.8 7.6 3.8 8ZM3.8 11.1C3.8 11.5 4.1 11.9 4.6 11.9H7.7C8.1 11.9 8.5 11.6 8.5 11.1C8.5 10.7 8.2 10.3 7.7 10.3H4.6C4.1 10.3 3.8 10.7 3.8 11.1ZM15.6 8C15.6 8.4 15.9 8.8 16.4 8.8H16.7C17.1 8.8 17.5 8.5 17.5 8C17.5 7.6 17.2 7.2 16.7 7.2H16.4C16 7.2 15.6 7.6 15.6 8Z" fill="#3A434B"/>
</svg>
