<svg width="25" height="24" viewBox="0 0 25 24" fill="none" xmlns="http://www.w3.org/2000/svg">
<path d="M22.2 6.8C22.1 5.5 21 4.4 19.7 4.3C17.8 4.2 14.8 4 12.5 4C10.2 4 7.2 4.2 5.4 4.3C4 4.5 2.9 5.5 2.8 6.8C2.7 8.3 2.5 10.4 2.5 12C2.5 13.6 2.7 15.7 2.8 17.2C2.9 18.5 4 19.6 5.3 19.7C7.2 19.8 10.2 20 12.5 20C14.8 20 17.8 19.8 19.6 19.7C20.9 19.6 22 18.6 22.1 17.2C22.2 15.8 22.4 13.7 22.4 12C22.4 10.3 22.3 8.3 22.2 6.8ZM5.5 5.9C7.3 5.8 10.3 5.6 12.5 5.6C14.7 5.6 17.7 5.8 19.5 5.9C20.1 5.9 20.6 6.4 20.6 7C20.7 7.6 20.7 8.2 20.8 8.9H4.2C4.2 8.2 4.3 7.6 4.3 7C4.4 6.4 4.9 5.9 5.5 5.9ZM20.7 17C20.6 17.6 20.2 18.1 19.6 18.1C17.8 18.2 14.8 18.4 12.6 18.4C10.4 18.4 7.4 18.2 5.6 18.1C5 18.1 4.5 17.6 4.5 17C4.4 15.6 4.2 13.5 4.2 12C4.2 11.5 4.2 11 4.2 10.5H21C21 11 21 11.6 21 12C21 13.5 20.8 15.6 20.7 17ZM18.4 12H17.2C16.8 12 16.4 12.3 16.4 12.8C16.4 13.2 16.7 13.6 17.2 13.6H18.4C18.8 13.6 19.2 13.3 19.2 12.8C19.2 12.3 18.9 12 18.4 12Z" fill="#3A434B"/>
</svg>
