<svg width="185" height="70" viewBox="0 0 185 70" fill="none" xmlns="http://www.w3.org/2000/svg">
<g clip-path="url(#clip0_4_123)">
<path d="M25.9927 60.3887C26.1006 60.4989 26.1827 60.6321 26.233 60.7787C26.2833 60.9252 26.3005 61.0813 26.2833 61.2354V69.203C26.1402 69.2407 25.9945 69.2673 25.8474 69.2824C25.6498 69.3071 25.4509 69.3199 25.2517 69.3206C24.9262 69.3512 24.6001 69.2682 24.3277 69.0854C24.2276 68.9754 24.1519 68.8451 24.1058 68.7031C24.0597 68.5611 24.0442 68.4107 24.0603 68.2622V65.6308H20.8639V69.203C20.7261 69.2422 20.5851 69.2687 20.4426 69.2824C20.2497 69.3065 20.0557 69.3193 19.8614 69.3206C19.5359 69.3512 19.2098 69.2682 18.9373 69.0854C18.8373 68.9754 18.7616 68.8451 18.7155 68.7031C18.6694 68.5611 18.6539 68.4107 18.67 68.2622V60.2799C18.7659 60.2593 18.9141 60.2358 19.1117 60.2064C19.3041 60.1772 19.4983 60.1625 19.6928 60.1623C20.0134 60.1347 20.3343 60.212 20.6082 60.3828C20.7156 60.4915 20.7974 60.6233 20.8477 60.7683C20.898 60.9133 20.9155 61.0679 20.8988 61.2207V63.8521H24.0952V60.2799C24.1998 60.2593 24.3509 60.2358 24.5456 60.2064C24.738 60.177 24.9322 60.1622 25.1268 60.1623C25.4318 60.1437 25.7348 60.223 25.9927 60.3887ZM34.1552 63.4434C34.443 63.9263 34.5891 64.482 34.5765 65.0457C34.5854 65.172 34.568 65.2987 34.5254 65.4177C34.4829 65.5367 34.4161 65.6453 34.3295 65.7367C34.1376 65.904 33.8989 66.0068 33.6467 66.0307L29.8429 66.5981C29.9327 66.9484 30.1495 67.2518 30.4503 67.4478C30.8453 67.6852 31.2985 67.8054 31.7579 67.7947C32.1473 67.7975 32.5347 67.7379 32.9057 67.6183C33.2071 67.5241 33.499 67.401 33.7774 67.2508C33.9254 67.3407 34.0484 67.4672 34.1349 67.6183C34.2239 67.7694 34.2711 67.9421 34.2714 68.1181C34.2734 68.2587 34.2438 68.3978 34.1849 68.5252C34.1261 68.6525 34.0394 68.7646 33.9314 68.8531C33.6536 69.0704 33.3307 69.2212 32.987 69.2941C32.5361 69.3969 32.0748 69.4463 31.6126 69.4411C30.9194 69.4514 30.2326 69.3058 29.6017 69.0148C29.0132 68.7415 28.5199 68.2947 28.1866 67.733C27.8271 67.0831 27.6512 66.3457 27.6781 65.6014C27.6615 65.043 27.7605 64.4872 27.9687 63.9697C28.1485 63.5344 28.4214 63.1448 28.7678 62.8289C29.0979 62.5324 29.4832 62.3055 29.901 62.1615C30.3236 62.0142 30.7676 61.9396 31.2145 61.941C31.8196 61.9274 32.4187 62.0658 32.958 62.3438C33.4483 62.5936 33.8621 62.9737 34.1552 63.4434ZM32.5425 64.6782C32.5166 64.3904 32.3935 64.1204 32.1938 63.9138C32.0703 63.7903 31.9222 63.6949 31.7593 63.634C31.5964 63.5732 31.4225 63.5483 31.2494 63.561C31.047 63.5546 30.8455 63.591 30.6578 63.6679C30.4702 63.7449 30.3005 63.8607 30.1597 64.0079C29.8851 64.3167 29.7257 64.713 29.7093 65.1281L32.5425 64.6782ZM39.0777 61.9587C38.601 61.9566 38.1259 62.0129 37.6625 62.1263C37.2539 62.2199 36.8618 62.3766 36.5002 62.5908C36.2868 62.7199 36.1018 62.892 35.9568 63.0965C35.8207 63.3033 35.7517 63.5479 35.7592 63.7962V68.3092C35.7434 68.4553 35.7615 68.603 35.8119 68.7408C35.8624 68.8786 35.9438 69.0026 36.0498 69.103C36.3158 69.2722 36.6288 69.3495 36.9419 69.3235C37.1362 69.3242 37.3304 69.3114 37.5231 69.2853C37.6605 69.2693 37.7964 69.2428 37.9299 69.2059V64.0608C38.1613 63.9266 38.411 63.8275 38.6709 63.7668C38.9564 63.6978 39.249 63.6633 39.5426 63.6639C39.6959 63.6629 39.8491 63.6698 40.0017 63.6845C40.1207 63.696 40.239 63.7137 40.3562 63.7374C40.42 63.6258 40.4716 63.5075 40.5103 63.3846C40.554 63.2418 40.5756 63.0931 40.5742 62.9436C40.5645 62.285 40.0657 61.9557 39.0777 61.9557V61.9587ZM47.5046 63.4434C47.7924 63.9263 47.9386 64.482 47.9259 65.0457C47.9348 65.172 47.9174 65.2987 47.8748 65.4177C47.8323 65.5367 47.7656 65.6453 47.679 65.7367C47.487 65.904 47.2483 66.0068 46.9961 66.0307L43.1923 66.5981C43.2821 66.9484 43.4989 67.2518 43.7997 67.4478C44.1947 67.6852 44.6479 67.8054 45.1073 67.7947C45.4967 67.7975 45.8841 67.7379 46.2551 67.6183C46.5566 67.5241 46.8485 67.401 47.1268 67.2508C47.2745 67.3401 47.3967 67.4667 47.4814 67.6183C47.5727 67.7686 47.621 67.9416 47.6208 68.1181C47.6228 68.2587 47.5932 68.3978 47.5344 68.5252C47.4755 68.6525 47.3888 68.7646 47.2809 68.8531C47.003 69.0704 46.6801 69.2212 46.3365 69.2941C45.8855 69.3969 45.4242 69.4463 44.962 69.4411C44.2688 69.4514 43.582 69.3058 42.9512 69.0148C42.3673 68.7404 41.8783 68.2948 41.5476 67.7359C41.1881 67.086 41.0122 66.3486 41.0391 65.6043C41.0226 65.0459 41.1216 64.4901 41.3297 63.9726C41.5096 63.5373 41.7825 63.1478 42.1288 62.8319C42.4579 62.5354 42.8422 62.3085 43.2592 62.1645C43.6828 62.0173 44.1277 61.9428 44.5755 61.944C45.1807 61.9303 45.7797 62.0687 46.319 62.3468C46.8089 62.5958 47.2228 62.9748 47.5162 63.4434H47.5046ZM45.8919 64.6782C45.8661 64.3904 45.7429 64.1204 45.5432 63.9138C45.4197 63.7903 45.2716 63.6949 45.1087 63.634C44.9458 63.5732 44.7719 63.5483 44.5988 63.561C44.3964 63.5546 44.1949 63.591 44.0072 63.6679C43.8196 63.7449 43.6499 63.8607 43.5091 64.0079C43.2345 64.3167 43.0751 64.713 43.0587 65.1281L45.8919 64.6782ZM61.874 62.2145C61.6557 62.0742 61.4 62.0054 61.1417 62.0175C60.7949 62.0144 60.4536 62.1058 60.1537 62.2821C60.0462 63.1435 59.927 64.005 59.7905 64.8693C59.6539 65.7337 59.5202 66.554 59.3837 67.339H59.311C59.2616 67.1214 59.1802 66.801 59.064 66.3746L58.663 64.9046C58.5158 64.346 58.354 63.7678 58.1777 63.17C58.1467 63.0704 58.0941 62.9791 58.0237 62.9028C57.9533 62.8265 57.8669 62.7671 57.7709 62.729C57.5278 62.624 57.2651 62.5739 57.0009 62.582C56.7951 62.5781 56.5898 62.6029 56.3906 62.6555C56.2118 62.7047 56.0407 62.7789 55.8821 62.876C55.7165 63.4934 55.5538 64.102 55.3881 64.7047C55.2225 65.3074 55.0975 65.8425 54.9668 66.307C54.836 66.7716 54.7634 67.1185 54.7053 67.3449H54.6471C54.6181 67.2155 54.5803 67.0509 54.5367 66.8215C54.4931 66.5922 54.4408 66.3158 54.3769 65.963C54.313 65.6102 54.2461 65.1839 54.1677 64.69C54.0892 64.1961 54.002 63.6139 53.9062 62.9495C53.9015 62.8128 53.8686 62.6785 53.8095 62.5555C53.7505 62.4324 53.6666 62.3233 53.5633 62.235C53.3484 62.0859 53.0913 62.0116 52.831 62.0233C52.6028 62.0196 52.3766 62.0668 52.1685 62.1615C51.9947 62.2393 51.8355 62.3467 51.6977 62.4791C51.7558 62.8613 51.8343 63.2876 51.9302 63.7639C52.0261 64.2402 52.1307 64.7311 52.2411 65.2339C52.3515 65.7366 52.4678 66.2306 52.584 66.7039C52.7002 67.1773 52.8136 67.586 52.924 67.9476C53.0061 68.2319 53.1031 68.5116 53.2146 68.7855C53.3236 68.9908 53.5085 69.144 53.7289 69.2118C54.0086 69.3124 54.3038 69.3622 54.6007 69.3588C54.8463 69.3638 55.0912 69.3311 55.3271 69.2618C55.5006 69.213 55.6633 69.1311 55.8066 69.0207C55.8937 68.7443 56.0071 68.3827 56.1466 67.9329C56.286 67.4831 56.4371 66.995 56.5911 66.4628C56.7452 65.9307 56.8817 65.4368 56.9834 64.9487C57.091 65.4279 57.2101 65.916 57.3467 66.4187C57.4832 66.9215 57.6198 67.3713 57.7593 67.7947C57.8988 68.2181 58.015 68.5591 58.1022 68.8237C58.2281 69.1765 58.6494 69.3529 59.3662 69.3529C59.6308 69.3551 59.8945 69.3225 60.1508 69.2559C60.3408 69.2163 60.5196 69.1339 60.6738 69.0148C60.774 68.7648 60.8613 68.5096 60.9354 68.2504C61.0313 67.927 61.1359 67.5595 61.2463 67.1479C61.3567 66.7363 61.4671 66.31 61.5747 65.869C61.6822 65.4279 61.7781 65.0075 61.8652 64.6106C61.9524 64.2137 62.0193 63.8638 62.0686 63.561C62.1094 63.3377 62.1336 63.1117 62.1413 62.8848C62.1583 62.7607 62.1446 62.6342 62.1015 62.5167C62.0584 62.3992 61.9872 62.2944 61.8943 62.2115L61.874 62.2145ZM67.0028 61.944C66.633 61.94 66.265 61.9966 65.9131 62.1115C65.7503 62.1674 65.6021 62.2262 65.4627 62.285V60.5474C65.4794 60.3991 65.4618 60.2489 65.4114 60.1086C65.361 59.9683 65.2791 59.8417 65.1721 59.7389C64.8999 59.5692 64.5812 59.4919 64.2626 59.5184C64.0679 59.5165 63.8735 59.5313 63.6814 59.5625C63.5487 59.5823 63.4176 59.6118 63.2891 59.6507V68.3092C63.2733 68.4553 63.2914 68.603 63.3418 68.7408C63.3923 68.8786 63.4737 69.0026 63.5797 69.103C63.8562 69.2804 64.1839 69.3581 64.5095 69.3235C64.6991 69.3235 64.8884 69.3107 65.0762 69.2853C65.2136 69.2693 65.3496 69.2428 65.483 69.2059V64.0079C65.5841 63.9446 65.6889 63.8877 65.7968 63.8374C66.0585 63.7167 66.3433 63.6565 66.6308 63.661C66.9469 63.6498 67.2563 63.7542 67.5026 63.955C67.6265 64.08 67.7214 64.2315 67.7802 64.3983C67.839 64.5651 67.8603 64.7431 67.8425 64.9193V68.3151C67.8268 68.4611 67.8448 68.6089 67.8953 68.7467C67.9457 68.8845 68.0271 69.0085 68.1331 69.1089C68.4044 69.2782 68.722 69.3555 69.0397 69.3294C69.2341 69.33 69.4283 69.3173 69.6209 69.2912C69.7583 69.2752 69.8943 69.2486 70.0277 69.2118V64.8017C70.0277 63.8491 69.7633 63.1376 69.2286 62.6613C68.6089 62.1475 67.8199 61.8901 67.0202 61.941L67.0028 61.944ZM77.6585 63.4434C77.9463 63.9263 78.0924 64.482 78.0798 65.0457C78.0886 65.172 78.0712 65.2987 78.0287 65.4177C77.9861 65.5367 77.9194 65.6453 77.8328 65.7367C77.6409 65.904 77.4022 66.0068 77.1499 66.0307L73.3433 66.5981C73.4363 66.9477 73.6536 67.2502 73.9535 67.4478C74.3486 67.6852 74.8017 67.8054 75.2611 67.7947C75.6505 67.7975 76.0379 67.7379 76.409 67.6183C76.7104 67.5241 77.0023 67.401 77.2807 67.2508C77.4284 67.3401 77.5506 67.4667 77.6352 67.6183C77.7266 67.7686 77.7748 67.9416 77.7747 68.1181C77.7768 68.259 77.7469 68.3984 77.6875 68.5258C77.6281 68.6532 77.5406 68.7652 77.4318 68.8531C77.1547 69.0717 76.8315 69.2226 76.4874 69.2941C76.0375 69.3971 75.5771 69.4465 75.1158 69.4411C74.4217 69.4515 73.7339 69.3059 73.1021 69.0148C72.5187 68.7408 72.0305 68.2951 71.7015 67.7359C71.4077 67.1586 71.2369 66.5253 71.2004 65.877C71.1638 65.2288 71.2623 64.5799 71.4894 63.9726C71.6703 63.538 71.9431 63.1486 72.2885 62.8319C72.6186 62.5353 73.0039 62.3085 73.4217 62.1645C73.8453 62.0171 74.2902 61.9426 74.7381 61.944C75.3433 61.9295 75.9426 62.0679 76.4816 62.3468C76.9708 62.5957 77.3837 62.9748 77.6759 63.4434H77.6585ZM76.0457 64.6782C76.0199 64.3904 75.8967 64.1204 75.697 63.9138C75.5736 63.7903 75.4254 63.6949 75.2625 63.634C75.0997 63.5732 74.9258 63.5483 74.7526 63.561C74.5502 63.5546 74.3488 63.591 74.1611 63.6679C73.9734 63.7449 73.8038 63.8607 73.6629 64.0079C73.387 64.3159 73.2275 64.7126 73.2125 65.1281L76.0457 64.6782ZM85.08 62.6408C84.4988 62.1762 83.69 61.944 82.6536 61.944C82.1137 61.9383 81.5757 62.0095 81.0554 62.1556C80.632 62.2682 80.2295 62.4499 79.864 62.6937C79.6864 62.8032 79.5347 62.9507 79.4194 63.1259C79.3121 63.3108 79.2596 63.5231 79.2683 63.7374V68.3092C79.2525 68.4553 79.2706 68.603 79.321 68.7408C79.3714 68.8786 79.4529 69.0026 79.5589 69.103C79.8262 69.2714 80.1399 69.3487 80.4539 69.3235C80.6482 69.3242 80.8424 69.3114 81.035 69.2853C81.1724 69.269 81.3084 69.2425 81.4418 69.2059V63.9844C81.6185 63.8908 81.8033 63.814 81.994 63.755C82.2107 63.6893 82.4361 63.6575 82.6623 63.661C82.9566 63.6468 83.2465 63.7373 83.4818 63.9167C83.5917 64.017 83.6773 64.1416 83.7317 64.2808C83.7862 64.4201 83.808 64.5702 83.7956 64.7194V68.3063C83.7786 68.4524 83.7962 68.6005 83.8467 68.7385C83.8972 68.8765 83.9792 69.0004 84.0862 69.1001C84.3559 69.268 84.6712 69.3452 84.987 69.3206C85.1765 69.3206 85.3658 69.3078 85.5536 69.2824C85.691 69.2661 85.8269 69.2395 85.9604 69.203V64.6459C85.9818 64.2662 85.9149 63.8867 85.765 63.538C85.6151 63.1892 85.3864 62.8809 85.0974 62.6378L85.08 62.6408ZM96.7672 62.2145C96.5314 62.0779 96.263 62.0098 95.9914 62.0175C95.8293 62.0164 95.668 62.0382 95.5119 62.0821C95.3611 62.1234 95.215 62.1805 95.076 62.2527C94.9675 62.7995 94.8416 63.3699 94.6983 63.9638C94.5549 64.5577 94.397 65.1339 94.2246 65.6925C94.0561 66.2512 93.8875 66.751 93.7248 67.192H93.6667C93.4342 66.4746 93.2047 65.7661 92.9838 65.0604C92.763 64.3548 92.5363 63.6433 92.3155 62.9289C92.2598 62.6438 92.1052 62.3883 91.8796 62.2086C91.6565 62.0726 91.3988 62.0061 91.1386 62.0175C90.9152 62.0147 90.6939 62.0619 90.4906 62.1556C90.3106 62.2363 90.1463 62.3488 90.0053 62.4879C90.2262 63.3111 90.4354 64.0343 90.6301 64.6635C90.8248 65.2927 91.0108 65.8396 91.188 66.2953C91.3653 66.751 91.5338 67.1479 91.6907 67.4713C91.8303 67.816 92.0268 68.1342 92.2719 68.4121C92.4147 68.5579 92.5887 68.6685 92.7804 68.7355C92.6155 69.0022 92.436 69.2594 92.2428 69.5058C92.042 69.7615 91.8286 70.0068 91.6036 70.2408C91.3961 70.4559 91.1779 70.66 90.9497 70.8524C90.9886 71.1669 91.1345 71.458 91.3624 71.6756C91.5998 71.8948 91.9129 72.011 92.2341 71.999C92.4874 71.9805 92.7344 71.9102 92.9602 71.7925C93.1859 71.6748 93.3857 71.512 93.5476 71.314C94.1124 70.69 94.6003 69.9989 95.0005 69.2559C95.2039 68.8913 95.4044 68.4846 95.602 68.0358C95.8025 67.583 95.9914 67.1155 96.1832 66.6304C96.3749 66.1453 96.526 65.669 96.6626 65.2045C96.7992 64.74 96.9067 64.3048 96.9881 63.905C97.0636 63.572 97.1055 63.2322 97.113 62.8907C97.1259 62.7578 97.102 62.6239 97.044 62.504C96.986 62.3841 96.8962 62.2828 96.7847 62.2115L96.7672 62.2145ZM104.639 63.7139C104.96 64.3218 105.12 65.0035 105.104 65.6925C105.121 66.3844 104.964 67.0694 104.648 67.683C104.354 68.235 103.906 68.6878 103.361 68.9854C102.755 69.2834 102.091 69.4382 101.418 69.4382C100.745 69.4382 100.081 69.2834 99.4755 68.9854C98.9262 68.6948 98.4758 68.2442 98.1824 67.6918C97.864 67.0735 97.706 66.3836 97.7232 65.6867C97.7045 64.9926 97.8648 64.3057 98.1882 63.6933C98.4925 63.1462 98.9439 62.6977 99.49 62.3997C100.088 62.0962 100.749 61.9383 101.418 61.9383C102.087 61.9383 102.748 62.0962 103.346 62.3997C103.899 62.699 104.355 63.1546 104.657 63.7109L104.639 63.7139ZM102.896 65.6925C102.926 65.1651 102.789 64.6416 102.503 64.199C102.374 64.0332 102.209 63.8992 102.021 63.8071C101.833 63.7149 101.627 63.6671 101.418 63.6671C101.209 63.6671 101.003 63.7149 100.815 63.8071C100.627 63.8992 100.462 64.0332 100.333 64.199C100.04 64.6406 99.8988 65.1676 99.9317 65.6984C99.8971 66.23 100.035 66.7585 100.324 67.2037C100.455 67.3682 100.621 67.5009 100.81 67.5921C100.998 67.6832 101.205 67.7305 101.414 67.7305C101.623 67.7305 101.829 67.6832 102.018 67.5921C102.206 67.5009 102.372 67.3682 102.503 67.2037C102.8 66.7578 102.944 66.226 102.913 65.6896L102.896 65.6925ZM111.764 62.0616C111.574 62.0605 111.385 62.0752 111.198 62.1057C111.06 62.1271 110.925 62.1565 110.791 62.1939V67.486C110.665 67.5482 110.534 67.5975 110.399 67.633C110.185 67.6857 109.965 67.7104 109.745 67.7065C109.399 67.7281 109.057 67.6238 108.78 67.4125C108.656 67.2863 108.56 67.1339 108.501 66.9662C108.442 66.7985 108.42 66.6196 108.437 66.4423V63.0876C108.455 62.9379 108.438 62.786 108.388 62.644C108.337 62.5021 108.255 62.3741 108.146 62.2703C107.872 62.1072 107.554 62.0333 107.237 62.0586C107.047 62.0575 106.858 62.0723 106.67 62.1027C106.538 62.1225 106.407 62.152 106.278 62.1909V66.4687C106.252 67.0649 106.401 67.6555 106.708 68.1651C107 68.6071 107.422 68.9446 107.914 69.1295C108.493 69.3411 109.106 69.4408 109.721 69.4235C110.228 69.4278 110.733 69.3706 111.227 69.253C111.628 69.1601 112.012 69.0044 112.366 68.7914C112.548 68.6837 112.7 68.5322 112.81 68.3504C112.905 68.1643 112.952 67.957 112.947 67.7477V63.073C112.965 62.9232 112.948 62.7713 112.898 62.6293C112.847 62.4874 112.765 62.3594 112.656 62.2556C112.39 62.1045 112.086 62.036 111.782 62.0586L111.764 62.0616ZM123.344 62.6496C122.763 62.1851 121.954 61.9528 120.918 61.9528C120.378 61.9473 119.84 62.0185 119.319 62.1645C118.896 62.2778 118.494 62.4595 118.128 62.7025C117.951 62.8121 117.8 62.9596 117.686 63.1347C117.578 63.3193 117.525 63.5316 117.532 63.7462V68.318C117.517 68.4641 117.535 68.6118 117.585 68.7496C117.635 68.8874 117.717 69.0114 117.823 69.1118C118.089 69.281 118.402 69.3584 118.715 69.3324C118.905 69.3323 119.094 69.3196 119.282 69.2941C119.419 69.2781 119.555 69.2516 119.688 69.2148V63.9844C119.865 63.8913 120.05 63.8145 120.241 63.755C120.457 63.6895 120.683 63.6578 120.909 63.661C121.204 63.6468 121.495 63.7373 121.731 63.9167C121.84 64.0175 121.925 64.1423 121.979 64.2815C122.033 64.4206 122.055 64.5704 122.042 64.7194V68.3063C122.025 68.4524 122.043 68.6005 122.093 68.7385C122.144 68.8765 122.226 69.0004 122.333 69.1001C122.603 69.2676 122.918 69.3448 123.234 69.3206C123.423 69.3206 123.612 69.3078 123.8 69.2824C123.938 69.2664 124.074 69.2398 124.207 69.203V64.6459C124.231 64.2676 124.167 63.8888 124.02 63.54C123.874 63.1913 123.648 62.8822 123.361 62.6378L123.344 62.6496ZM131.887 63.4434C132.174 63.9268 132.32 64.4822 132.309 65.0457C132.317 65.1719 132.299 65.2985 132.257 65.4174C132.214 65.5363 132.148 65.645 132.062 65.7367C131.87 65.904 131.631 66.0068 131.379 66.0307L127.566 66.5951C127.659 66.9447 127.877 67.2473 128.176 67.4448C128.571 67.683 129.025 67.8033 129.484 67.7918C129.873 67.7943 130.261 67.7348 130.632 67.6154C130.933 67.5211 131.225 67.3981 131.504 67.2478C131.651 67.3379 131.773 67.4643 131.858 67.6154C131.949 67.7657 131.998 67.9387 131.998 68.1152C131.999 68.2559 131.969 68.3952 131.909 68.5225C131.85 68.6498 131.763 68.7618 131.655 68.8502C131.377 69.0682 131.054 69.219 130.71 69.2912C130.26 69.394 129.8 69.4434 129.339 69.4382C128.645 69.4485 127.957 69.3029 127.325 69.0119C126.742 68.7379 126.253 68.2921 125.924 67.733C125.631 67.1557 125.46 66.5224 125.423 65.8741C125.387 65.2258 125.485 64.577 125.712 63.9697C125.892 63.5344 126.165 63.1448 126.511 62.8289C126.841 62.5324 127.227 62.3055 127.645 62.1615C128.068 62.0142 128.513 61.9396 128.961 61.941C129.566 61.9269 130.165 62.0653 130.704 62.3438C131.19 62.5953 131.599 62.9754 131.887 63.4434ZM130.274 64.6782C130.249 64.3904 130.125 64.1204 129.926 63.9138C129.802 63.7906 129.654 63.6954 129.491 63.6346C129.328 63.5737 129.154 63.5487 128.981 63.561C128.779 63.5546 128.577 63.591 128.39 63.6679C128.202 63.7449 128.032 63.8607 127.892 64.0079C127.616 64.3159 127.456 64.7126 127.441 65.1281L130.274 64.6782ZM139.62 63.4434C139.906 63.9268 140.052 64.4822 140.041 65.0457C140.049 65.1719 140.032 65.2985 139.989 65.4174C139.947 65.5363 139.88 65.645 139.794 65.7367C139.602 65.904 139.363 66.0068 139.111 66.0307L135.304 66.5981C135.397 66.9477 135.615 67.2502 135.915 67.4478C136.309 67.686 136.763 67.8062 137.222 67.7947C137.612 67.7972 137.999 67.7377 138.37 67.6183C138.672 67.5241 138.963 67.401 139.242 67.2508C139.389 67.3408 139.511 67.4673 139.596 67.6183C139.688 67.7686 139.736 67.9416 139.736 68.1181C139.737 68.2589 139.707 68.3981 139.648 68.5254C139.588 68.6527 139.501 68.7648 139.393 68.8531C139.116 69.0711 138.792 69.222 138.449 69.2941C137.999 69.397 137.538 69.4463 137.077 69.4411C136.383 69.4515 135.695 69.3059 135.063 69.0148C134.48 68.7408 133.992 68.2951 133.663 67.7359C133.369 67.1586 133.198 66.5253 133.162 65.877C133.125 65.2288 133.223 64.5799 133.45 63.9726C133.63 63.5373 133.903 63.1478 134.25 62.8319C134.58 62.5353 134.965 62.3085 135.383 62.1645C135.806 62.0171 136.251 61.9426 136.699 61.944C137.304 61.9299 137.904 62.0683 138.443 62.3468C138.926 62.5983 139.332 62.9772 139.62 63.4434ZM138.007 64.6782C137.981 64.3904 137.858 64.1204 137.658 63.9138C137.534 63.7906 137.386 63.6954 137.223 63.6346C137.061 63.5737 136.887 63.5487 136.714 63.561C136.511 63.5546 136.31 63.591 136.122 63.6679C135.935 63.7449 135.765 63.8607 135.624 64.0079C135.348 64.3159 135.189 64.7126 135.174 65.1281L138.007 64.6782ZM147.616 59.736C147.72 59.8409 147.798 59.9682 147.846 60.1082C147.894 60.2482 147.91 60.3974 147.893 60.5445V67.7477C147.898 67.9534 147.848 68.1567 147.747 68.3357C147.629 68.5162 147.469 68.6653 147.282 68.7708C146.966 68.9717 146.624 69.127 146.265 69.2324C145.798 69.3721 145.314 69.4395 144.827 69.4323C144.105 69.4505 143.389 69.31 142.726 69.0207C142.157 68.7594 141.682 68.3246 141.369 67.7771C141.031 67.1464 140.865 66.436 140.889 65.719C140.859 64.9792 141.027 64.2448 141.375 63.5933C141.682 63.0569 142.14 62.625 142.691 62.3526C143.261 62.0731 143.888 61.9321 144.522 61.941C144.836 61.9361 145.149 61.9757 145.452 62.0586C145.556 62.088 145.652 62.1204 145.742 62.1556V59.6478C145.871 59.6088 146.002 59.5793 146.134 59.5596C146.322 59.5291 146.511 59.5144 146.701 59.5155C147.022 59.4879 147.343 59.5652 147.616 59.736ZM145.742 67.4683V63.8873C145.687 63.8609 145.64 63.8315 145.582 63.808C145.339 63.705 145.076 63.6549 144.812 63.661C144.498 63.6547 144.188 63.7306 143.911 63.8815C143.642 64.0354 143.428 64.2723 143.301 64.5577C143.141 64.9279 143.067 65.3301 143.083 65.7337C143.083 66.4178 143.235 66.9225 143.54 67.2478C143.702 67.4123 143.896 67.5405 144.11 67.6241C144.325 67.7077 144.554 67.7448 144.783 67.733C144.975 67.735 145.166 67.7072 145.35 67.6506C145.486 67.6043 145.616 67.5432 145.739 67.4683H145.742ZM157.99 62.0586C157.661 62.0584 157.334 62.1029 157.017 62.1909V67.4831C156.891 67.5453 156.76 67.5946 156.625 67.6301C156.411 67.6828 156.191 67.7075 155.971 67.7036C155.624 67.7258 155.28 67.6215 155.003 67.4095C154.88 67.2828 154.785 67.1302 154.727 66.9626C154.668 66.795 154.646 66.6164 154.663 66.4393V63.0876C154.681 62.9379 154.664 62.786 154.614 62.6441C154.563 62.5022 154.481 62.3742 154.373 62.2703C154.099 62.1072 153.782 62.0333 153.466 62.0586C153.276 62.0575 153.087 62.0723 152.899 62.1027C152.767 62.1225 152.635 62.152 152.507 62.1909V66.4687C152.481 67.0644 152.63 67.6546 152.934 68.1651C153.226 68.6065 153.648 68.9439 154.14 69.1295C154.72 69.3409 155.334 69.4406 155.95 69.4235C156.456 69.4278 156.96 69.3706 157.453 69.253C157.855 69.1601 158.24 69.0043 158.595 68.7914C158.776 68.6837 158.928 68.5321 159.036 68.3504C159.134 68.1651 159.182 67.9574 159.176 67.7477V63.073C159.194 62.9232 159.177 62.7713 159.126 62.6294C159.076 62.4875 158.993 62.3595 158.885 62.2556C158.613 62.0994 158.299 62.0307 157.987 62.0586H157.99ZM165.804 65.7249C165.417 65.3584 164.797 65.0771 163.944 64.8811L163.363 64.7341C163.155 64.7026 162.956 64.6243 162.782 64.5048C162.731 64.4663 162.69 64.4166 162.662 64.3595C162.633 64.3024 162.617 64.2395 162.616 64.1755C162.615 64.0816 162.642 63.9895 162.694 63.9117C162.746 63.8338 162.82 63.774 162.907 63.7403C163.165 63.6355 163.443 63.5883 163.721 63.6022C163.962 63.6034 164.202 63.6281 164.438 63.6757C164.681 63.719 164.919 63.783 165.15 63.8668C165.321 63.9213 165.485 63.9953 165.638 64.0873C165.759 63.9858 165.858 63.8608 165.929 63.7198C166.01 63.5608 166.05 63.3839 166.045 63.2053C166.048 63.0681 166.02 62.9321 165.962 62.808C165.904 62.684 165.818 62.5754 165.711 62.4908C165.445 62.2794 165.133 62.1335 164.802 62.0645C164.385 61.9675 163.959 61.9211 163.532 61.9263C162.747 61.8847 161.971 62.098 161.315 62.5349C161.054 62.718 160.843 62.9638 160.7 63.2503C160.557 63.5367 160.486 63.8547 160.495 64.1755C160.483 64.4426 160.528 64.7092 160.629 64.9565C160.729 65.2039 160.882 65.426 161.076 65.6073C161.583 66.0114 162.183 66.2776 162.82 66.3805L163.43 66.5275C163.654 66.5493 163.868 66.6271 164.055 66.7539C164.116 66.8043 164.166 66.8685 164.198 66.9415C164.231 67.0145 164.247 67.0942 164.244 67.1743C164.244 67.586 163.889 67.7918 163.183 67.7918C162.76 67.7983 162.339 67.7306 161.939 67.5918C161.611 67.4754 161.293 67.3308 160.989 67.1596C160.85 67.2497 160.736 67.3729 160.655 67.5183C160.565 67.6827 160.52 67.8685 160.524 68.0564C160.524 68.515 160.78 68.8649 161.294 69.1001C161.916 69.3558 162.585 69.476 163.256 69.4529C164.273 69.4529 165.049 69.2471 165.58 68.8414C165.839 68.6485 166.047 68.3943 166.187 68.1011C166.326 67.8079 166.392 67.4847 166.379 67.1596C166.388 66.8928 166.341 66.6272 166.241 66.38C166.142 66.1328 165.992 65.9096 165.801 65.7249H165.804Z" fill="white"/>
<path d="M183.611 30.7825C184.722 28.9981 185.19 26.8807 184.936 24.7877C184.473 21.0055 182.84 17.4684 180.269 14.6827C178.723 13.0262 176.856 11.7103 174.785 10.8174C172.713 9.92451 170.482 9.47379 168.23 9.49347C167.497 9.49449 166.765 9.53768 166.037 9.62283C164.44 9.8073 162.876 10.2109 161.387 10.8224L161.454 9.90508C161.63 7.46443 160.841 5.05286 159.261 3.20008C157.681 1.34729 155.439 0.204792 153.027 0.0235205C152.792 0 152.556 0 152.344 0C150.539 0.00758075 148.776 0.554324 147.277 1.57164C145.778 2.58896 144.609 4.03154 143.917 5.71843C143.344 5.58959 142.76 5.51771 142.174 5.5038H141.933C139.689 5.50411 137.524 6.34078 135.852 7.85395C134.179 9.36712 133.116 11.4507 132.866 13.7066C132.375 13.6507 131.878 13.6154 131.37 13.6007H130.934C128.143 13.5905 125.397 14.3182 122.969 15.7117L122.626 9.90214C122.487 7.55553 121.468 5.35102 119.778 3.73747C118.089 2.12392 115.854 1.22266 113.531 1.21719C113.351 1.21719 113.168 1.21719 112.988 1.23189C110.707 1.37213 108.562 2.37142 106.973 4.03284C105.385 5.69427 104.469 7.89733 104.407 10.2079C104.241 10.2079 104.072 10.2079 103.904 10.2079C103.576 10.2079 103.239 10.2079 102.904 10.2402C100.612 10.364 98.3732 10.9825 96.3372 12.0543C95.4363 7.93817 91.7285 4.99811 87.0966 4.99811H86.7828C82.9529 5.10689 79.8407 7.12672 78.3907 10.1109H78.167C76.8084 10.1093 75.4667 10.415 74.24 11.0056C73.0132 11.5962 71.9325 12.4567 71.0767 13.5243C70.2985 12.3007 69.2452 11.2808 68.0028 10.5481C66.7603 9.81531 65.3642 9.39045 63.9284 9.30824C63.7569 9.30824 63.5855 9.29354 63.4169 9.29354C62.0335 9.29134 60.6677 9.60788 59.4231 10.2192C58.1785 10.8305 57.0878 11.7204 56.2337 12.8216C55.0986 12.3265 53.8754 12.0713 52.6392 12.0719C52.4474 12.0719 52.2527 12.0719 52.058 12.0925C50.526 12.1939 49.0444 12.6865 47.7516 13.5243C46.0788 12.8935 44.3063 12.5767 42.5211 12.5894C42.1695 12.5894 41.8121 12.5894 41.4546 12.6217C39.5982 12.7376 37.7752 13.1741 36.0643 13.9124C36.0086 12.5663 35.6552 11.2499 35.0301 10.0603C34.405 8.87067 33.5242 7.83807 32.4524 7.03852C28.8585 4.31049 24.566 2.68389 20.0851 2.35205C19.4894 2.29031 18.8879 2.26385 18.3068 2.26385C9.61251 2.26385 3.06566 7.93818 2.3857 16.0616V16.1498C2.09511 19.6132 2.75764 22.6179 4.35585 25.1111C3.14093 25.8479 2.11621 26.866 1.36595 28.0816C0.615691 29.2973 0.161317 30.6757 0.0401869 32.1036C-0.0809429 33.5315 0.134631 34.9681 0.669185 36.2953C1.20374 37.6225 2.04201 38.8024 3.11506 39.7379C7.17427 43.2135 12.2007 45.3269 17.4989 45.7856C18.1731 45.8444 18.8502 45.8738 19.5069 45.8738C23.6012 45.8738 27.2422 44.7448 30.058 42.6045C30.5066 43.1854 30.9919 43.7363 31.5109 44.2539C34.507 47.2111 38.5302 48.861 42.7158 48.8492C43.0558 48.8492 43.4016 48.8492 43.7415 48.8139C44.3261 48.7773 44.9082 48.7077 45.485 48.6052C46.077 50.4659 47.2365 52.089 48.7969 53.2416C50.3574 54.3941 52.2386 55.0168 54.1706 55.0204C54.3624 55.0204 54.56 55.0204 54.7517 55.0027C57.1655 54.8447 59.4187 53.7247 61.0175 51.8883C62.6163 50.0519 63.43 47.649 63.2804 45.2064V45.0859C64.3544 45.3787 65.456 45.5561 66.5669 45.6151C66.8575 45.6151 67.1248 45.6386 67.3979 45.6386C69.1244 45.6468 70.836 45.3142 72.4367 44.6596C73.7298 45.4642 75.2011 45.9291 76.717 46.012C76.8855 46.012 77.0569 46.0267 77.2284 46.0267C78.2721 46.0278 79.3082 45.8467 80.2911 45.4916C80.626 45.973 81.0044 46.4219 81.4215 46.8323C83.116 48.5044 85.3893 49.4403 87.7562 49.4401H88.009C89.6749 49.3915 91.296 48.8828 92.6968 47.9692C94.0976 47.0556 95.2248 45.7719 95.9565 44.2568C98.4187 45.716 101.222 46.4824 104.075 46.4765C104.392 46.4765 104.715 46.4765 105.031 46.4501C107.156 46.3365 109.23 45.7556 111.11 44.7478C112.341 45.3468 113.688 45.6573 115.054 45.6563C115.234 45.6563 115.417 45.6563 115.597 45.6416C116.815 45.565 118.004 45.241 119.096 44.689C120.545 46.2758 122.296 47.5511 124.243 48.4391C126.19 49.3271 128.293 49.8095 130.428 49.8576C130.574 49.8576 130.719 49.8576 130.864 49.8576C132.843 49.8665 134.803 49.4664 136.624 48.6816C137.957 49.4899 139.473 49.9375 141.026 49.9811H141.267C143.052 49.9809 144.798 49.4517 146.288 48.459C147.779 47.4662 148.95 46.0534 149.656 44.395H149.802C150.022 44.4097 150.249 44.4185 150.473 44.4185C151.679 44.4166 152.874 44.172 153.986 43.6991C155.099 43.2262 156.107 42.5343 156.953 41.6637C160.019 44.295 164.014 45.815 168.489 45.815C169.266 45.8154 170.042 45.7702 170.814 45.6798C175.309 45.1535 179.22 43.2131 182.126 40.0613L182.254 39.9173C183.034 39.0217 183.619 37.9695 183.969 36.8295C184.32 35.6896 184.429 34.4875 184.288 33.3021C184.189 32.4326 183.96 31.5832 183.611 30.7825ZM168.733 34.5311C169.029 34.5306 169.325 34.5129 169.619 34.4781C171.309 34.296 172.891 33.5491 174.115 32.3554C174.53 31.941 175.076 31.688 175.658 31.641C175.765 31.6292 175.873 31.6233 175.98 31.6233C176.617 31.6212 177.232 31.8621 177.701 32.2981C178.17 32.7341 178.459 33.333 178.511 33.9754C178.554 34.3446 178.518 34.7187 178.408 35.0733C178.298 35.4279 178.115 35.7551 177.872 36.0334C176.035 38.0239 173.513 39.4263 170.142 39.8202C169.594 39.8857 169.042 39.9181 168.489 39.9173C162.285 39.9173 157.389 35.71 156.633 29.1037V29.0155C155.866 22.3122 159.958 16.2409 166.711 15.453C167.218 15.3929 167.728 15.3625 168.239 15.3618C175.01 15.3618 178.654 20.9156 179.171 25.4492C179.392 27.3779 178.195 28.8038 176.463 29.0067L163.43 30.5296C164.313 33.1845 166.214 34.5311 168.733 34.5311ZM155.657 9.47583L153.777 35.4248C153.717 36.2685 153.343 37.0579 152.731 37.6344C152.119 38.2109 151.315 38.5317 150.479 38.5325H150.232C149.798 38.5008 149.374 38.3829 148.986 38.1854C148.597 37.9879 148.25 37.7147 147.966 37.3815C147.682 37.0483 147.465 36.6616 147.329 36.2436C147.193 35.8256 147.139 35.3845 147.172 34.9456L149.049 8.9966C149.108 8.1521 149.48 7.36136 150.091 6.78326C150.703 6.20515 151.507 5.8825 152.344 5.88013H152.591C153.026 5.91213 153.45 6.03062 153.839 6.22881C154.228 6.42701 154.575 6.701 154.859 7.03507C155.143 7.36914 155.36 7.75672 155.496 8.17556C155.632 8.59441 155.684 9.03628 155.651 9.47583H155.657ZM144.577 40.8287C144.557 41.7035 144.2 42.5358 143.581 43.1473C142.963 43.7589 142.132 44.1012 141.267 44.101H141.18C140.745 44.0895 140.316 43.9915 139.919 43.8124C139.521 43.6333 139.162 43.3767 138.863 43.0573C138.563 42.7378 138.329 42.3618 138.173 41.9506C138.017 41.5395 137.943 41.1013 137.955 40.6611V40.3524C136.33 42.4545 134.145 43.9981 130.861 43.9981H130.571C125.122 43.854 120.049 39.3969 120.255 31.5057V31.4175C120.458 23.6587 125.486 19.4838 130.922 19.4838H131.213C134.744 19.5779 136.879 21.2684 138.399 23.2059L138.62 14.6533C138.642 13.78 139 12.95 139.619 12.3403C140.237 11.7306 141.066 11.3895 141.93 11.3898H142.017C142.452 11.4009 142.88 11.4986 143.278 11.6773C143.675 11.8561 144.034 12.1124 144.334 12.4317C144.633 12.7509 144.868 13.1267 145.024 13.5377C145.18 13.9487 145.254 14.3867 145.242 14.8267L144.577 40.8287ZM115.228 39.7673H115.03C114.186 39.7673 113.373 39.4405 112.759 38.854C112.145 38.2676 111.775 37.4657 111.726 36.6126L111.709 36.3186C110.227 38.6148 108.103 40.3759 104.665 40.5817C104.462 40.5817 104.256 40.5994 104.052 40.5994C98.8216 40.5994 93.78 36.6067 93.3354 29.0243V28.9361C92.8763 21.0567 97.7145 16.4379 103.239 16.1057C103.462 16.1057 103.68 16.0851 103.895 16.0851C107.048 16.0851 109.14 17.5081 110.712 19.1927L110.213 10.6519C110.164 9.76677 110.465 8.89837 111.048 8.23703C111.631 7.57568 112.45 7.17534 113.325 7.12378H113.522C114.367 7.12455 115.179 7.45151 115.793 8.03785C116.407 8.62419 116.777 9.42565 116.826 10.2785L118.346 36.251C118.391 37.1327 118.091 37.9968 117.509 38.6553C116.928 39.3138 116.113 39.7135 115.243 39.7673H115.228ZM87.7562 43.56C86.8938 43.5603 86.0653 43.22 85.4472 42.6116C84.829 42.0032 84.4699 41.1747 84.4465 40.3024L83.9583 22.8443C83.9348 21.9568 84.2604 21.0961 84.8635 20.4512C85.4666 19.8063 86.2979 19.4298 87.175 19.4044H87.2709C88.1331 19.4048 88.9612 19.7454 89.5792 20.3536C90.1972 20.9619 90.5565 21.79 90.5807 22.662L91.0602 40.1172C91.0844 41.006 90.7589 41.8682 90.1552 42.5143C89.5515 43.1604 88.7189 43.5376 87.8405 43.5629L87.7562 43.56ZM86.9426 10.8929H87.0966C89.1133 10.8929 90.6795 12.0278 90.7318 13.9183V14.0065C90.7841 15.9469 89.2062 17.2405 87.114 17.2846H86.9658C84.9317 17.2846 83.3771 16.1086 83.3248 14.2123V14.1241C83.2725 12.1895 84.8504 10.9517 86.9426 10.8929ZM81.4651 19.5456L80.4916 36.9831C80.4448 37.8377 80.0764 38.6418 79.4619 39.2301C78.8475 39.8184 78.0337 40.1464 77.1877 40.1466H76.9988C76.1224 40.0972 75.3011 39.698 74.7155 39.0365C74.1298 38.375 73.8275 37.5053 73.875 36.6185V36.3568C72.3291 38.1532 70.388 39.7703 67.3427 39.7703C67.1771 39.7703 67.0086 39.7703 66.8342 39.7703C61.8304 39.4762 59.0989 35.9776 59.3982 30.562L60.0723 18.3666C60.1184 17.5114 60.4866 16.7066 61.1011 16.1177C61.7156 15.5287 62.5298 15.2004 63.3763 15.2001H63.5622C64.4387 15.2495 65.2599 15.6487 65.8456 16.3102C66.4313 16.9717 66.7336 17.8414 66.686 18.7282L66.1281 28.8097C65.9537 31.9791 67.3456 33.6931 69.8679 33.8343H70.1846C72.5355 33.8343 74.0988 32.2966 74.2528 29.2595L74.8078 19.178C74.8543 18.3126 75.23 17.499 75.8562 16.9076C76.4824 16.3163 77.3105 15.993 78.167 16.0057H78.3529C79.2294 16.058 80.0495 16.4602 80.6331 17.1239C81.2167 17.7877 81.5159 18.6587 81.4651 19.5456ZM54.3624 49.1344C54.2926 49.1344 54.22 49.1344 54.1502 49.1344C53.3107 49.1325 52.5031 48.8081 51.8909 48.2269C51.2786 47.6456 50.9073 46.8508 50.8521 46.0032L50.393 38.653C48.9197 40.9551 46.8043 42.725 43.3696 42.9455C43.1487 42.9602 42.9308 42.969 42.71 42.969C37.4998 42.969 32.464 38.997 31.9903 31.4352V31.347C31.4993 23.4705 36.3171 18.8311 41.8411 18.4754C42.0794 18.4607 42.3148 18.4548 42.5414 18.4548C45.671 18.4548 47.7574 19.8601 49.3266 21.533V21.4889C49.2765 20.6054 49.5748 19.7378 50.156 19.0764C50.7372 18.4151 51.554 18.0139 52.4271 17.9609C52.4968 17.9609 52.5695 17.9609 52.6392 17.9609C53.4809 17.9614 54.2907 18.2865 54.904 18.8698C55.5172 19.4531 55.8878 20.2509 55.9402 21.1008L57.46 45.571C57.4884 46.0109 57.4307 46.4521 57.2903 46.8694C57.1499 47.2867 56.9295 47.6719 56.6418 48.0029C56.3541 48.3339 56.0046 48.6042 55.6135 48.7983C55.2223 48.9925 54.7972 49.1067 54.3624 49.1344ZM19.4982 39.9849C19.0042 39.9849 18.4986 39.9643 17.9813 39.9202C13.8861 39.5727 10.0008 37.9382 6.8694 35.2455C6.50278 34.9178 6.21717 34.5078 6.0355 34.0483C5.85383 33.5887 5.78115 33.0925 5.8233 32.5994C5.88652 31.8129 6.24231 31.0799 6.81885 30.5484C7.39538 30.0169 8.14973 29.7265 8.92964 29.7358C9.02262 29.7358 9.11852 29.7358 9.22022 29.7358C9.90645 29.788 10.5582 30.061 11.08 30.5149C13.239 32.426 15.6683 33.699 18.6206 33.9519C18.9112 33.9754 19.1582 33.9871 19.4139 33.9871C21.6921 33.9871 23.1159 33.0493 23.2525 31.4293V31.3411C23.3978 29.627 22.4272 28.6568 17.4583 26.9045C11.4664 24.7965 7.65979 22.7414 8.15959 16.6349V16.5467C8.60999 11.3722 12.7363 8.14398 18.3068 8.14398C18.7281 8.14398 19.1582 8.16456 19.597 8.19984C23.007 8.4438 26.2746 9.68027 29.0061 11.7603C29.5334 12.1531 29.9244 12.7047 30.1231 13.3361C30.3218 13.9674 30.318 14.6462 30.1122 15.2752C29.9065 15.9042 29.5094 16.4513 28.9777 16.8381C28.446 17.2249 27.807 17.4317 27.1521 17.4287C27.0591 17.4287 26.9632 17.4287 26.8615 17.4287C26.2631 17.3794 25.6904 17.1614 25.2081 16.7995C23.113 15.2883 21.0906 14.3475 19.0042 14.1682C18.7804 14.1505 18.5625 14.1417 18.3562 14.1417C16.2 14.1417 14.9854 15.1502 14.8692 16.5143V16.6025C14.7006 18.6224 15.9472 19.3956 21.0877 21.2067C27.1202 23.3618 30.4067 25.9108 29.9563 31.2646V31.3499C29.471 36.9772 25.2808 39.9849 19.4982 39.9849ZM49.9513 30.2827C50.1954 34.1988 47.7923 36.9596 44.7034 37.1565C44.5871 37.1565 44.468 37.1565 44.3518 37.1565C41.4082 37.1565 38.8307 34.7663 38.5982 30.9824V30.8942C38.3483 26.9339 40.8008 24.2144 43.8868 24.0144H44.2384C47.1791 24.0144 49.7159 26.4077 49.9513 30.1886V30.2827ZM172.775 25.2316L162.86 26.39C163.035 23.3059 164.584 21.1273 167.312 20.8039C167.52 20.7782 167.73 20.7655 167.94 20.7657C170.378 20.7716 172.101 22.5238 172.775 25.2316ZM111.32 27.9306C111.549 31.8497 109.134 34.5987 106.046 34.7839C105.935 34.7839 105.825 34.7839 105.717 34.7839C102.762 34.7839 100.196 32.376 99.9636 28.6098V28.5216C99.7341 24.5613 102.195 21.8506 105.284 21.6653C105.392 21.6653 105.502 21.6653 105.61 21.6653C108.562 21.6653 111.099 24.0732 111.32 27.8395V27.9306ZM138.268 31.8703V31.9585C138.17 35.8217 135.612 38.3355 132.582 38.3355H132.436C129.342 38.2532 126.796 35.5836 126.898 31.6616V31.5734C126.985 27.6778 129.6 25.2052 132.625 25.2052H132.773C135.868 25.2846 138.37 27.96 138.268 31.8821V31.8703Z" fill="#DF1683"/>
<path d="M87.8405 43.56H87.7563C86.8938 43.5603 86.0654 43.22 85.4472 42.6116C84.829 42.0032 84.47 41.1747 84.4465 40.3024L83.9583 22.8443C83.9349 21.9568 84.2604 21.0961 84.8635 20.4512C85.4666 19.8063 86.298 19.4298 87.1751 19.4044H87.271C88.1332 19.4048 88.9612 19.7454 89.5792 20.3536C90.1973 20.9619 90.5565 21.79 90.5807 22.662L91.0602 40.1172C91.0836 41.0055 90.7578 41.8669 90.1542 42.5124C89.5505 43.1578 88.7184 43.5346 87.8405 43.56ZM118.352 36.2098C118.4 37.0949 118.1 37.9633 117.516 38.6247C116.933 39.286 116.114 39.6863 115.24 39.7379H115.042C114.198 39.7379 113.385 39.4111 112.771 38.8246C112.156 38.2382 111.787 37.4363 111.738 36.5832L111.721 36.2892C110.239 38.5854 108.115 40.3465 104.677 40.5523C104.474 40.5523 104.267 40.57 104.064 40.57C98.8333 40.57 93.7917 36.5773 93.3471 28.9949V28.9067C92.888 21.0273 97.7262 16.4085 103.25 16.0763C103.474 16.0763 103.692 16.0557 103.907 16.0557C107.06 16.0557 109.152 17.4787 110.724 19.1633L110.224 10.6225C110.176 9.73737 110.476 8.86897 111.06 8.20762C111.643 7.54628 112.462 7.14594 113.336 7.09437H113.534C114.378 7.09514 115.19 7.4221 115.805 8.00844C116.419 8.59478 116.788 9.39624 116.838 10.2491L118.352 36.2098ZM111.32 27.9306V27.8424C111.099 24.0644 108.562 21.6683 105.61 21.6683C105.502 21.6683 105.392 21.6683 105.284 21.6683C102.195 21.8535 99.7341 24.5642 99.9637 28.5245V28.6127C100.185 32.3907 102.762 34.7868 105.717 34.7868C105.825 34.7868 105.935 34.7868 106.046 34.7868C109.134 34.6104 111.549 31.8615 111.32 27.9306ZM145.251 14.8179L144.577 40.8287C144.557 41.7035 144.2 42.5358 143.581 43.1473C142.963 43.7589 142.132 44.1012 141.267 44.101H141.18C140.745 44.0895 140.316 43.9915 139.919 43.8124C139.521 43.6333 139.162 43.3767 138.863 43.0573C138.563 42.7378 138.329 42.3618 138.173 41.9506C138.017 41.5395 137.943 41.1013 137.955 40.6611V40.3524C136.33 42.4545 134.145 43.9981 130.861 43.9981H130.571C125.122 43.854 120.049 39.3969 120.255 31.5057V31.4175C120.459 23.6587 125.486 19.4838 130.922 19.4838H131.213C134.744 19.5779 136.879 21.2684 138.399 23.2059L138.62 14.6533C138.642 13.78 139 12.95 139.619 12.3403C140.237 11.7306 141.066 11.3895 141.93 11.3898H142.017C142.452 11.3997 142.881 11.4963 143.279 11.674C143.677 11.8517 144.036 12.1071 144.336 12.4255C144.637 12.7439 144.872 13.1191 145.029 13.5296C145.186 13.9401 145.262 14.3779 145.251 14.8179ZM138.277 31.8703C138.379 27.9483 135.877 25.2787 132.782 25.1964H132.634C129.603 25.1964 127.005 27.6689 126.907 31.5734V31.6616C126.805 35.5836 129.35 38.2532 132.445 38.3355H132.59C135.621 38.3355 138.178 35.8217 138.277 31.9585V31.8703ZM152.591 5.88013H152.344C151.508 5.88085 150.703 6.20161 150.091 6.77802C149.478 7.35444 149.104 8.14384 149.043 8.98778L147.166 34.9368C147.135 35.3755 147.189 35.8161 147.327 36.2334C147.464 36.6507 147.681 37.0366 147.966 37.3689C148.25 37.7012 148.597 37.9735 148.986 38.1701C149.375 38.3668 149.798 38.4839 150.232 38.5148H150.479C151.315 38.5141 152.12 38.1932 152.731 37.6167C153.343 37.0403 153.717 36.2509 153.777 35.4072L155.657 9.45819C155.719 8.57241 155.431 7.69785 154.856 7.02685C154.281 6.35586 153.467 5.94338 152.591 5.88013ZM176.454 29.0184L163.421 30.5414C164.313 33.1875 166.223 34.5311 168.733 34.5311C169.029 34.5306 169.325 34.5129 169.619 34.4781C171.309 34.296 172.891 33.5491 174.115 32.3554C174.53 31.941 175.076 31.688 175.658 31.641C175.765 31.6292 175.873 31.6233 175.98 31.6233C176.617 31.6212 177.232 31.8621 177.701 32.2981C178.17 32.7341 178.459 33.333 178.511 33.9754C178.554 34.3446 178.519 34.7187 178.408 35.0733C178.298 35.4279 178.115 35.7551 177.872 36.0334C176.036 38.0239 173.513 39.4263 170.143 39.8202C169.594 39.8857 169.042 39.9181 168.489 39.9173C162.285 39.9173 157.389 35.71 156.633 29.1037V29.0155C155.866 22.3122 159.958 16.2409 166.711 15.453C167.218 15.3929 167.728 15.3625 168.239 15.3618C175.01 15.3618 178.654 20.9156 179.171 25.4492C179.383 27.3896 178.186 28.8126 176.454 29.0184ZM172.775 25.2316C172.101 22.5238 170.378 20.7716 167.94 20.7716C167.73 20.7714 167.52 20.7841 167.312 20.8098C164.584 21.1273 163.035 23.3059 162.86 26.3959L172.775 25.2316ZM57.46 45.571C57.4876 46.0104 57.4293 46.451 57.2886 46.8676C57.1478 47.2842 56.9273 47.6687 56.6396 47.9991C56.352 48.3294 56.0028 48.5992 55.6121 48.793C55.2213 48.9868 54.7967 49.1008 54.3624 49.1285C54.2926 49.1285 54.22 49.1285 54.1503 49.1285C53.3116 49.1267 52.5049 48.8032 51.8928 48.2231C51.2807 47.6431 50.9088 46.8498 50.8521 46.0032L50.393 38.653C48.9198 40.9551 46.8043 42.725 43.3696 42.9455C43.1488 42.9602 42.9308 42.969 42.71 42.969C37.4998 42.969 32.464 38.997 31.9904 31.4352V31.347C31.4993 23.4705 36.3171 18.8311 41.8411 18.4754C42.0794 18.4607 42.3148 18.4548 42.5414 18.4548C45.671 18.4548 47.7574 19.8601 49.3266 21.533V21.4889C49.2765 20.6054 49.5748 19.7378 50.156 19.0764C50.7373 18.4151 51.554 18.0139 52.4271 17.9609C52.4968 17.9609 52.5695 17.9609 52.6392 17.9609C53.4809 17.9614 54.2908 18.2865 54.904 18.8698C55.5172 19.4531 55.8878 20.2509 55.9403 21.1008L57.46 45.571ZM49.9513 30.2827V30.1945C49.716 26.4253 47.1792 24.0203 44.2384 24.0203H43.8868C40.8008 24.2203 38.3483 26.9398 38.5982 30.9001V30.9883C38.8336 34.7574 41.4082 37.1624 44.3518 37.1624C44.468 37.1624 44.5871 37.1624 44.7034 37.1624C47.7923 36.9625 50.1954 34.2018 49.9513 30.2827ZM86.9688 17.2876H87.117C89.2092 17.2288 90.787 15.9499 90.7347 14.0094V13.9212C90.6824 12.0307 89.1162 10.8959 87.0995 10.8959H86.9455C84.8533 10.9547 83.2755 12.1924 83.3278 14.1299V14.2182C83.3801 16.1086 84.9492 17.2876 86.9688 17.2876ZM29.9505 31.2646C30.4009 25.902 27.1144 23.3618 21.0818 21.2067C15.9414 19.3956 14.689 18.6224 14.8634 16.6025V16.5143C14.9767 15.1502 16.1913 14.1417 18.3504 14.1417C18.5567 14.1417 18.7746 14.1417 18.9984 14.1682C21.0847 14.3475 23.1072 15.2736 25.211 16.7819C25.6933 17.1438 26.2661 17.3617 26.8645 17.4111C26.9574 17.4111 27.0533 17.4111 27.155 17.4111C27.8052 17.4084 28.438 17.1992 28.9643 16.8131C29.4907 16.4269 29.8838 15.8833 30.0883 15.2589C30.2929 14.6346 30.2984 13.9609 30.1042 13.3332C29.9101 12.7054 29.5259 12.1552 29.0061 11.7603C26.2738 9.67974 23.0051 8.44324 19.5941 8.19984C19.1553 8.16456 18.7223 8.14398 18.3039 8.14398C12.7363 8.14398 8.60999 11.378 8.17412 16.5584V16.6466C7.66269 22.7532 11.4693 24.8083 17.4728 26.9163C22.4418 28.6803 23.4123 29.6388 23.267 31.3528V31.4411C23.1305 33.061 21.7066 33.9989 19.4284 33.9989C19.1727 33.9989 18.9112 33.9989 18.6351 33.9636C15.6828 33.7108 13.2535 32.4377 11.0945 30.5267C10.5727 30.0727 9.92098 29.7997 9.23475 29.7476C9.14176 29.7476 9.04587 29.7476 8.94417 29.7476C8.16163 29.7313 7.40232 30.017 6.82049 30.5467C6.23866 31.0764 5.87796 31.8104 5.81167 32.5994C5.76952 33.0925 5.8422 33.5887 6.02387 34.0483C6.20554 34.5078 6.49115 34.9178 6.85778 35.2455C9.98922 37.9382 13.8745 39.5727 17.9697 39.9202C18.4869 39.9643 18.9925 39.9849 19.4865 39.9849C25.2721 39.9849 29.4594 36.9684 29.9301 31.3411L29.9505 31.2646ZM78.3413 16.0116H78.1554C77.3088 16.0125 76.4947 16.341 75.8798 16.9297C75.265 17.5185 74.896 18.3229 74.8485 19.178L74.2935 29.2536C74.125 32.2907 72.55 33.8284 70.2253 33.8284H69.9086C67.3863 33.6873 65.9944 31.9732 66.1688 28.8038L66.7267 18.7223C66.7743 17.8355 66.472 16.9659 65.8863 16.3044C65.3006 15.6428 64.4794 15.2436 63.6029 15.1943H63.417C62.5705 15.1945 61.7563 15.5228 61.1418 16.1118C60.5273 16.7008 60.1591 17.5055 60.113 18.3607L59.4389 30.5561C59.1483 35.9717 61.8711 39.4821 66.8749 39.7644C67.0493 39.7644 67.2178 39.7644 67.3834 39.7644C70.4375 39.7644 72.3699 38.1473 73.9157 36.351V36.6126C73.8682 37.4994 74.1705 38.3691 74.7562 39.0306C75.3419 39.6921 76.1631 40.0914 77.0395 40.1407H77.2284C78.0664 40.1302 78.8692 39.7984 79.4749 39.2124C80.0805 38.6263 80.4439 37.8296 80.4917 36.9831L81.4535 19.5456C81.5027 18.6597 81.2028 17.7902 80.6194 17.1277C80.036 16.4653 79.2168 16.0639 78.3413 16.0116Z" fill="white"/>
</g>
<defs>
<clipPath id="clip0_4_123">
<rect width="185" height="70" fill="white"/>
</clipPath>
</defs>
</svg>
