<svg width="46" height="46" viewBox="0 0 46 46" fill="none" xmlns="http://www.w3.org/2000/svg">
<path d="M46 23C46 35.7025 35.7025 46 23 46V46C10.2975 46 -9.00232e-07 35.7026 -2.01072e-06 23V23C-3.12122e-06 10.2975 10.2974 3.12122e-06 23 2.01072e-06V2.01072e-06C35.7025 9.00232e-07 46 10.2975 46 23V23Z" fill="white"/>
<path fill-rule="evenodd" clip-rule="evenodd" d="M26.7727 30.1477C26.5531 30.3674 26.1969 30.3674 25.9773 30.1477L19.2273 23.3977C19.0076 23.1781 19.0076 22.8219 19.2273 22.6023L25.9773 15.8523C26.1969 15.6326 26.5531 15.6326 26.7727 15.8523C26.9924 16.0719 26.9924 16.4281 26.7727 16.6477L20.4205 23L26.7727 29.3523C26.9924 29.5719 26.9924 29.9281 26.7727 30.1477Z" fill="#3A434B"/>
</svg>
