<svg width="169" height="50" viewBox="0 0 169 50" fill="none" xmlns="http://www.w3.org/2000/svg">
<g clip-path="url(#clip0_206_5304)">
<path d="M167.731 27.9737C168.746 26.3522 169.173 24.428 168.942 22.5259C168.519 19.0888 167.027 15.8745 164.678 13.343C163.266 11.8376 161.561 10.6418 159.668 9.83037C157.776 9.01894 155.738 8.60935 153.681 8.62723C153.011 8.62816 152.342 8.66741 151.677 8.74479C150.218 8.91243 148.789 9.27916 147.429 9.83488L147.49 9.00128C147.651 6.78333 146.931 4.59181 145.488 2.90808C144.044 1.22436 141.996 0.186105 139.792 0.0213744C139.577 0 139.362 0 139.169 0C137.52 0.00688904 135.909 0.503744 134.54 1.42824C133.17 2.35273 132.103 3.66368 131.47 5.19664C130.947 5.07957 130.414 5.01424 129.878 5.0016H129.657C127.608 5.00189 125.63 5.76221 124.102 7.13731C122.575 8.51241 121.604 10.4059 121.375 12.4559C120.927 12.4052 120.473 12.3731 120.008 12.3597H119.61C117.06 12.3505 114.552 13.0117 112.334 14.2781L112.021 8.99861C111.893 6.86612 110.963 4.86276 109.419 3.39644C107.876 1.93012 105.835 1.11109 103.712 1.10612C103.548 1.10612 103.38 1.10612 103.216 1.11948C101.133 1.24693 99.1725 2.15504 97.7215 3.66486C96.2706 5.17469 95.4341 7.17673 95.3769 9.27648C95.2256 9.27648 95.0717 9.27648 94.9177 9.27648C94.6177 9.27648 94.3098 9.27648 94.0045 9.30587C91.9109 9.41832 89.8653 9.98041 88.0053 10.9544C87.1824 7.21385 83.7953 4.54205 79.564 4.54205H79.2773C75.7786 4.64091 72.9356 6.47643 71.611 9.18831H71.4066C70.1656 9.18689 68.9399 9.46468 67.8193 10.0014C66.6986 10.5381 65.7113 11.3201 64.9296 12.2903C64.2187 11.1783 63.2564 10.2515 62.1215 9.58561C60.9865 8.9197 59.7111 8.53361 58.3995 8.45891C58.2428 8.45891 58.0862 8.44555 57.9323 8.44555C56.6684 8.44355 55.4208 8.73121 54.2838 9.28671C53.1469 9.84222 52.1505 10.651 51.3703 11.6517C50.3333 11.2017 49.2159 10.9699 48.0867 10.9704C47.9115 10.9704 47.7336 10.9704 47.5557 10.9891C46.1562 11.0812 44.8028 11.5289 43.6217 12.2903C42.0936 11.717 40.4744 11.4291 38.8436 11.4406C38.5224 11.4406 38.1959 11.4406 37.8694 11.47C36.1736 11.5753 34.5081 11.972 32.9453 12.6429C32.8944 11.4196 32.5716 10.2234 32.0005 9.14234C31.4295 8.06126 30.6248 7.12288 29.6457 6.39628C26.3626 3.91717 22.4414 2.43899 18.3481 2.13744C17.8039 2.08133 17.2544 2.05728 16.7235 2.05728C8.78117 2.05728 2.80054 7.21385 2.17938 14.596V14.6762C1.91393 17.8236 2.51916 20.5541 3.97915 22.8198C2.8693 23.4894 1.9332 24.4146 1.24783 25.5193C0.562457 26.624 0.147379 27.8767 0.0367257 29.1743C-0.073928 30.4719 0.123002 31.7774 0.611324 32.9835C1.09965 34.1896 1.86541 35.2618 2.84567 36.112C6.55381 39.2705 11.1455 41.191 15.9855 41.6079C16.6014 41.6613 17.2199 41.688 17.8198 41.688C21.56 41.688 24.8861 40.6621 27.4584 38.717C27.8682 39.2449 28.3116 39.7456 28.7856 40.2159C31.5226 42.9033 35.1979 44.4027 39.0215 44.3919C39.332 44.3919 39.6479 44.3919 39.9585 44.3598C40.4925 44.3266 41.0243 44.2633 41.5512 44.1701C42.092 45.8611 43.1512 47.3361 44.5767 48.3835C46.0022 49.4309 47.7207 49.9968 49.4856 50C49.6608 50 49.8413 50 50.0165 49.984C52.2214 49.8404 54.2799 48.8226 55.7404 47.1537C57.2009 45.4849 57.9442 43.3012 57.8075 41.0815V40.972C58.7887 41.2381 59.795 41.3993 60.8098 41.4529C61.0752 41.4529 61.3194 41.4743 61.569 41.4743C63.1461 41.4817 64.7096 41.1795 66.1719 40.5846C67.3532 41.3158 68.6973 41.7383 70.082 41.8136C70.236 41.8136 70.3926 41.827 70.5492 41.827C71.5027 41.8279 72.4491 41.6634 73.3471 41.3407C73.6529 41.7782 73.9986 42.1861 74.3797 42.559C75.9276 44.0786 78.0043 44.929 80.1665 44.9289H80.3975C81.9193 44.8847 83.4002 44.4225 84.6798 43.5923C85.9595 42.762 86.9892 41.5954 87.6576 40.2186C89.9069 41.5446 92.4676 42.2411 95.0743 42.2358C95.3637 42.2358 95.6583 42.2358 95.9477 42.2117C97.8885 42.1085 99.7836 41.5806 101.501 40.6647C102.625 41.2091 103.856 41.4913 105.103 41.4903C105.268 41.4903 105.435 41.4903 105.599 41.477C106.712 41.4074 107.799 41.1129 108.796 40.6113C110.12 42.0533 111.719 43.2123 113.497 44.0192C115.276 44.8262 117.198 45.2646 119.148 45.3083C119.281 45.3083 119.414 45.3083 119.546 45.3083C121.354 45.3164 123.144 44.9528 124.808 44.2396C126.025 44.9742 127.41 45.3809 128.829 45.4205H129.05C130.68 45.4203 132.275 44.9394 133.637 44.0373C134.998 43.1351 136.068 41.8512 136.713 40.3441H136.846C137.048 40.3575 137.255 40.3655 137.459 40.3655C138.561 40.3637 139.652 40.1415 140.668 39.7117C141.685 39.282 142.606 38.6532 143.379 37.862C146.179 40.2533 149.829 41.6346 153.917 41.6346C154.627 41.6349 155.336 41.5939 156.041 41.5117C160.147 41.0334 163.72 39.2701 166.375 36.4059L166.492 36.275C167.204 35.4612 167.738 34.505 168.059 33.469C168.379 32.433 168.478 31.3407 168.35 30.2634C168.259 29.4733 168.05 28.7014 167.731 27.9737ZM154.14 31.3802C154.411 31.3798 154.681 31.3638 154.95 31.3322C156.494 31.1666 157.939 30.4878 159.056 29.4031C159.436 29.0265 159.935 28.7966 160.466 28.7539C160.564 28.7432 160.662 28.7379 160.76 28.7378C161.342 28.7359 161.904 28.9549 162.332 29.3511C162.761 29.7473 163.025 30.2915 163.073 30.8753C163.111 31.2108 163.079 31.5508 162.978 31.873C162.878 32.1953 162.711 32.4926 162.489 32.7455C160.811 34.5543 158.507 35.8288 155.427 36.1868C154.926 36.2463 154.422 36.2757 153.917 36.275C148.25 36.275 143.777 32.4516 143.087 26.4481V26.368C142.386 20.2763 146.123 14.759 152.293 14.043C152.756 13.9884 153.222 13.9607 153.689 13.9601C159.874 13.9601 163.203 19.0072 163.675 23.1271C163.877 24.8798 162.783 26.1756 161.201 26.3599L149.296 27.7439C150.103 30.1566 151.839 31.3802 154.14 31.3802ZM142.195 8.6112L140.477 32.1925C140.422 32.9592 140.081 33.6765 139.522 34.2004C138.963 34.7243 138.228 35.0159 137.464 35.0166H137.239C136.842 34.9878 136.456 34.8806 136.1 34.7011C135.745 34.5216 135.429 34.2734 135.169 33.9706C134.909 33.6678 134.712 33.3164 134.587 32.9365C134.463 32.5567 134.414 32.1558 134.444 31.757L136.158 8.1757C136.212 7.40825 136.552 6.68967 137.111 6.16431C137.669 5.63895 138.404 5.34575 139.169 5.34359H139.394C139.791 5.37267 140.179 5.48035 140.534 5.66046C140.89 5.84057 141.206 6.08956 141.466 6.39315C141.726 6.69674 141.923 7.04895 142.047 7.42958C142.172 7.8102 142.22 8.21176 142.189 8.6112H142.195ZM132.073 37.1032C132.055 37.8982 131.729 38.6546 131.163 39.2103C130.598 39.7661 129.84 40.0772 129.05 40.0769H128.97C128.572 40.0666 128.181 39.9774 127.818 39.8147C127.455 39.652 127.127 39.4188 126.853 39.1285C126.579 38.8382 126.365 38.4964 126.223 38.1228C126.081 37.7492 126.013 37.351 126.023 36.9509V36.6704C124.539 38.5807 122.543 39.9834 119.544 39.9834H119.278C114.301 39.8525 109.666 35.8021 109.855 28.631V28.5508C110.041 21.4999 114.633 17.706 119.599 17.706H119.865C123.09 17.7915 125.041 19.3278 126.43 21.0885L126.631 13.3162C126.651 12.5226 126.979 11.7684 127.544 11.2143C128.108 10.6602 128.866 10.3503 129.655 10.3505H129.734C130.132 10.3606 130.523 10.4494 130.886 10.6118C131.25 10.7743 131.577 11.0072 131.851 11.2973C132.125 11.5874 132.339 11.929 132.481 12.3024C132.624 12.6759 132.691 13.074 132.681 13.4739L132.073 37.1032ZM105.262 36.1387H105.082C104.31 36.1387 103.568 35.8418 103.007 35.3088C102.446 34.7758 102.108 34.0471 102.064 33.2719L102.048 33.0047C100.694 35.0914 98.7535 36.6918 95.6132 36.8788C95.4274 36.8788 95.2389 36.8948 95.0531 36.8948C90.2749 36.8948 85.6694 33.2665 85.2632 26.376V26.2958C84.8438 19.1354 89.2636 14.938 94.3098 14.6361C94.5142 14.6361 94.7133 14.6174 94.9097 14.6174C97.7899 14.6174 99.7011 15.9105 101.137 17.4415L100.681 9.67992C100.636 8.87559 100.911 8.08643 101.444 7.48543C101.977 6.88443 102.725 6.52063 103.524 6.47376H103.704C104.475 6.47446 105.217 6.77159 105.778 7.30443C106.339 7.83727 106.677 8.5656 106.722 9.3406L108.111 32.9432C108.152 33.7445 107.877 34.5297 107.346 35.1282C106.816 35.7266 106.071 36.0898 105.276 36.1387H105.262ZM80.1665 39.5853C79.3787 39.5856 78.6219 39.2764 78.0572 38.7235C77.4925 38.1706 77.1645 37.4176 77.143 36.625L76.6971 20.7599C76.6757 19.9533 76.973 19.1712 77.524 18.5851C78.0749 17.999 78.8344 17.6569 79.6356 17.6339H79.7232C80.5108 17.6342 81.2673 17.9437 81.8319 18.4965C82.3964 19.0492 82.7246 19.8018 82.7467 20.5942L83.1847 36.4567C83.2069 37.2644 82.9095 38.0479 82.358 38.635C81.8065 39.2222 81.046 39.5649 80.2435 39.588L80.1665 39.5853ZM79.4233 9.899H79.564C81.4062 9.899 82.837 10.9303 82.8848 12.6483V12.7284C82.9325 14.4918 81.4911 15.6674 79.5799 15.7075H79.4445C77.5863 15.7075 76.1662 14.6388 76.1184 12.9155V12.8353C76.0706 11.0773 77.512 9.95244 79.4233 9.899ZM74.4195 17.7621L73.5302 33.6085C73.4875 34.3852 73.1509 35.1159 72.5896 35.6505C72.0283 36.1852 71.2849 36.4832 70.512 36.4834H70.3395C69.5389 36.4385 68.7887 36.0757 68.2536 35.4746C67.7186 34.8734 67.4424 34.0831 67.4859 33.2772V33.0394C66.0737 34.6719 64.3005 36.1414 61.5185 36.1414C61.3672 36.1414 61.2133 36.1414 61.054 36.1414C56.4829 35.8742 53.9877 32.6948 54.2611 27.7733L54.8769 16.6907C54.919 15.9136 55.2553 15.1822 55.8167 14.647C56.3781 14.1118 57.1219 13.8134 57.8951 13.8132H58.065C58.8656 13.858 59.6158 14.2209 60.1509 14.822C60.6859 15.4231 60.962 16.2134 60.9186 17.0193L60.4089 26.1809C60.2497 29.0611 61.5212 30.6188 63.8253 30.747H64.1146C66.2622 30.747 67.6903 29.3497 67.831 26.5897L68.338 17.4281C68.3804 16.6417 68.7236 15.9023 69.2957 15.3649C69.8677 14.8275 70.6242 14.5337 71.4066 14.5453H71.5765C72.3772 14.5928 73.1264 14.9583 73.6595 15.5615C74.1926 16.1646 74.4659 16.9562 74.4195 17.7621ZM49.6608 44.6511C49.5971 44.6511 49.5307 44.6511 49.467 44.6511C48.7 44.6493 47.9623 44.3546 47.403 43.8264C46.8437 43.2981 46.5046 42.5759 46.4541 41.8056L46.0347 35.1261C44.6889 37.2181 42.7564 38.8265 39.6187 39.0269C39.417 39.0403 39.2179 39.0483 39.0162 39.0483C34.2566 39.0483 29.6563 35.4387 29.2236 28.5668V28.4867C28.775 21.329 33.1762 17.1129 38.2225 16.7896C38.4401 16.7762 38.6551 16.7709 38.8622 16.7709C41.7211 16.7709 43.6271 18.048 45.0605 19.5682V19.5282C45.0148 18.7252 45.2873 17.9368 45.8182 17.3358C46.3492 16.7348 47.0953 16.3702 47.8929 16.322C47.9566 16.322 48.0229 16.322 48.0867 16.322C48.8555 16.3225 49.5954 16.6179 50.1556 17.148C50.7158 17.6781 51.0543 18.4031 51.1022 19.1755L52.4905 41.4128C52.5164 41.8126 52.4637 42.2135 52.3355 42.5928C52.2072 42.972 52.0059 43.322 51.7431 43.6228C51.4802 43.9236 51.161 44.1692 50.8037 44.3457C50.4464 44.5221 50.058 44.6259 49.6608 44.6511ZM17.8119 36.3364C17.3606 36.3364 16.8987 36.3177 16.4262 36.2777C12.6852 35.9618 9.13592 34.4765 6.27531 32.0295C5.94039 31.7317 5.67948 31.3591 5.51352 30.9415C5.34756 30.5239 5.28117 30.073 5.31968 29.6249C5.37744 28.9101 5.70245 28.244 6.22913 27.761C6.7558 27.278 7.44491 27.0141 8.15736 27.0225C8.2423 27.0225 8.3299 27.0225 8.42281 27.0225C9.04969 27.0699 9.64504 27.318 10.1217 27.7306C12.094 29.4672 14.3132 30.6241 17.0102 30.8539C17.2756 30.8753 17.5013 30.886 17.7349 30.886C19.816 30.886 21.1167 30.0337 21.2415 28.5615V28.4813C21.3742 26.9237 20.4876 26.042 15.9484 24.4496C10.4748 22.5339 6.99733 20.6663 7.45391 15.117V15.0369C7.86536 10.3345 11.6348 7.40088 16.7235 7.40088C17.1084 7.40088 17.5013 7.41958 17.9021 7.45164C21.0173 7.67334 24.0023 8.79698 26.4974 10.6872C26.9792 11.0442 27.3363 11.5455 27.5179 12.1192C27.6994 12.6929 27.6959 13.3098 27.508 13.8814C27.32 14.453 26.9572 14.9502 26.4715 15.3017C25.9858 15.6532 25.4021 15.8411 24.8039 15.8384C24.7189 15.8384 24.6313 15.8384 24.5384 15.8384C23.9918 15.7936 23.4685 15.5955 23.028 15.2666C21.1141 13.8933 19.2665 13.0384 17.3606 12.8754C17.1562 12.8594 16.9571 12.8513 16.7686 12.8513C14.799 12.8513 13.6894 13.7678 13.5832 15.0075V15.0876C13.4292 16.9232 14.568 17.6258 19.2639 19.2717C24.7747 21.2301 27.7769 23.5465 27.3655 28.4119V28.4894C26.9222 33.6032 23.0943 36.3364 17.8119 36.3364ZM45.6312 27.5195C45.8542 31.0783 43.6589 33.5872 40.8372 33.7662C40.731 33.7662 40.6221 33.7662 40.516 33.7662C37.8269 33.7662 35.4724 31.594 35.26 28.1554V28.0752C35.0317 24.4763 37.2721 22.0049 40.0912 21.8232H40.4124C43.0988 21.8232 45.4162 23.9981 45.6312 27.434V27.5195ZM157.832 22.9294L148.775 23.982C148.935 21.1793 150.349 19.1995 152.842 18.9056C153.032 18.8823 153.224 18.8707 153.415 18.8709C155.643 18.8762 157.217 20.4686 157.832 22.9294ZM101.692 25.3821C101.902 28.9436 99.6958 31.4417 96.8741 31.61C96.7732 31.61 96.6723 31.61 96.5741 31.61C93.8745 31.61 91.5305 29.4218 91.3182 25.9993V25.9191C91.1085 22.3202 93.3568 19.8568 96.1786 19.6885C96.2768 19.6885 96.3777 19.6885 96.4759 19.6885C99.1729 19.6885 101.49 21.8767 101.692 25.2992V25.3821ZM126.31 28.9623V29.0424C126.22 32.5532 123.884 34.8376 121.115 34.8376H120.982C118.155 34.7627 115.83 32.3368 115.923 28.7726V28.6924C116.003 25.1523 118.392 22.9053 121.155 22.9053H121.29C124.117 22.9774 126.403 25.4088 126.31 28.973V28.9623Z" fill="#DF1683"/>
<path d="M80.2435 39.5854H80.1665C79.3787 39.5856 78.6218 39.2764 78.0571 38.7235C77.4924 38.1706 77.1644 37.4177 77.143 36.625L76.697 20.7599C76.6756 19.9533 76.973 19.1712 77.5239 18.5851C78.0749 17.999 78.8343 17.6569 79.6356 17.6339H79.7232C80.5108 17.6342 81.2673 17.9437 81.8318 18.4965C82.3964 19.0492 82.7246 19.8018 82.7467 20.5942L83.1847 36.4567C83.2061 37.2639 82.9084 38.0467 82.357 38.6333C81.8056 39.2199 81.0455 39.5623 80.2435 39.5854ZM108.116 32.9059C108.16 33.7102 107.886 34.4993 107.353 35.1003C106.82 35.7013 106.072 36.0652 105.273 36.112H105.092C104.321 36.112 103.579 35.815 103.018 35.2821C102.456 34.7491 102.119 34.0204 102.074 33.2452L102.058 32.978C100.705 35.0647 98.7641 36.6651 95.6238 36.8521C95.438 36.8521 95.2495 36.8681 95.0637 36.8681C90.2855 36.8681 85.6799 33.2398 85.2738 26.3493V26.2691C84.8544 19.1087 89.2742 14.9113 94.3204 14.6094C94.5248 14.6094 94.7239 14.5907 94.9203 14.5907C97.8005 14.5907 99.7117 15.8838 101.148 17.4148L100.691 9.6532C100.647 8.84888 100.921 8.05972 101.454 7.45872C101.987 6.85772 102.735 6.49391 103.534 6.44705H103.715C104.486 6.44775 105.228 6.74487 105.789 7.27771C106.35 7.81055 106.688 8.53888 106.733 9.31388L108.116 32.9059ZM101.692 25.3821V25.3019C101.49 21.8687 99.1729 19.6911 96.4759 19.6911C96.3776 19.6911 96.2768 19.6911 96.1786 19.6911C93.3568 19.8595 91.1084 22.3229 91.3181 25.9218V26.0019C91.5199 29.4352 93.8744 31.6127 96.5741 31.6127C96.6723 31.6127 96.7732 31.6127 96.874 31.6127C99.6958 31.4524 101.902 28.9543 101.692 25.3821ZM132.689 13.4659L132.073 37.1033C132.055 37.8983 131.728 38.6546 131.163 39.2103C130.598 39.7661 129.84 40.0772 129.049 40.077H128.97C128.572 40.0666 128.181 39.9775 127.818 39.8147C127.454 39.652 127.127 39.4188 126.853 39.1285C126.579 38.8382 126.365 38.4964 126.223 38.1228C126.081 37.7492 126.013 37.351 126.023 36.951V36.6704C124.539 38.5808 122.543 39.9834 119.544 39.9834H119.278C114.301 39.8525 109.666 35.8021 109.855 28.631V28.5508C110.04 21.5 114.633 17.706 119.599 17.706H119.865C123.09 17.7915 125.041 19.3278 126.429 21.0885L126.631 13.3162C126.651 12.5226 126.979 11.7684 127.544 11.2143C128.108 10.6602 128.866 10.3503 129.655 10.3505H129.734C130.132 10.3596 130.523 10.4473 130.887 10.6088C131.25 10.7703 131.579 11.0024 131.853 11.2917C132.128 11.581 132.343 11.922 132.486 12.2951C132.629 12.6681 132.698 13.066 132.689 13.4659ZM126.318 28.9623C126.411 25.3981 124.125 22.9721 121.298 22.8973H121.163C118.394 22.8973 116.021 25.1443 115.931 28.6924V28.7726C115.838 32.3368 118.163 34.7628 120.99 34.8376H121.123C123.892 34.8376 126.228 32.5532 126.318 29.0424V28.9623ZM139.394 5.34359H139.169C138.405 5.34425 137.669 5.63574 137.11 6.15956C136.55 6.68338 136.209 7.40075 136.153 8.16768L134.438 31.749C134.41 32.1476 134.459 32.548 134.585 32.9273C134.71 33.3065 134.908 33.6572 135.169 33.9592C135.429 34.2612 135.745 34.5086 136.101 34.6873C136.456 34.866 136.843 34.9724 137.239 35.0005H137.464C138.228 34.9998 138.963 34.7083 139.522 34.1844C140.081 33.6605 140.422 32.9432 140.477 32.1765L142.195 8.59517C142.252 7.79022 141.989 6.99545 141.463 6.38568C140.938 5.77591 140.194 5.40107 139.394 5.34359ZM161.193 26.3706L149.288 27.7546C150.102 30.1592 151.846 31.3803 154.14 31.3803C154.411 31.3798 154.681 31.3638 154.95 31.3322C156.493 31.1667 157.939 30.4879 159.056 29.4031C159.435 29.0265 159.935 28.7966 160.466 28.7539C160.564 28.7432 160.662 28.7379 160.76 28.7379C161.342 28.7359 161.904 28.9549 162.332 29.3511C162.761 29.7473 163.025 30.2915 163.072 30.8753C163.111 31.2108 163.079 31.5508 162.978 31.873C162.878 32.1953 162.711 32.4926 162.488 32.7455C160.811 34.5544 158.507 35.8288 155.427 36.1868C154.926 36.2463 154.422 36.2757 153.917 36.275C148.25 36.275 143.777 32.4517 143.087 26.4481V26.368C142.386 20.2763 146.123 14.759 152.292 14.043C152.756 13.9884 153.222 13.9607 153.689 13.9601C159.874 13.9601 163.203 19.0072 163.675 23.1271C163.869 24.8905 162.775 26.1836 161.193 26.3706ZM157.832 22.9294C157.217 20.4686 155.642 18.8762 153.415 18.8762C153.224 18.8761 153.032 18.8877 152.842 18.911C150.349 19.1995 148.934 21.1793 148.775 23.9874L157.832 22.9294ZM52.4905 41.4129C52.5157 41.8122 52.4624 42.2126 52.3339 42.5912C52.2053 42.9698 52.0038 43.3191 51.7411 43.6194C51.4783 43.9196 51.1593 44.1648 50.8023 44.3409C50.4454 44.517 50.0575 44.6206 49.6607 44.6457C49.597 44.6457 49.5307 44.6457 49.467 44.6457C48.7009 44.6441 47.9639 44.3501 47.4047 43.823C46.8456 43.2959 46.5058 42.5749 46.4541 41.8056L46.0347 35.1261C44.6888 37.2181 42.7563 38.8266 39.6187 39.0269C39.417 39.0403 39.2179 39.0483 39.0161 39.0483C34.2566 39.0483 29.6563 35.4387 29.2236 28.5669V28.4867C28.775 21.329 33.1762 17.1129 38.2224 16.7896C38.4401 16.7762 38.6551 16.7709 38.8622 16.7709C41.7211 16.7709 43.627 18.048 45.0605 19.5682V19.5282C45.0148 18.7252 45.2873 17.9368 45.8182 17.3358C46.3492 16.7348 47.0952 16.3702 47.8928 16.322C47.9565 16.322 48.0229 16.322 48.0866 16.322C48.8555 16.3225 49.5953 16.6179 50.1555 17.148C50.7157 17.6781 51.0542 18.4031 51.1021 19.1755L52.4905 41.4129ZM45.6312 27.5195V27.4394C45.4162 24.0141 43.0988 21.8286 40.4124 21.8286H40.0912C37.2721 22.0103 35.0317 24.4817 35.26 28.0806V28.1607C35.475 31.586 37.8269 33.7715 40.5159 33.7715C40.6221 33.7715 40.7309 33.7715 40.8371 33.7715C43.6589 33.5898 45.8542 31.081 45.6312 27.5195ZM79.4471 15.7102H79.5825C81.4938 15.6567 82.9352 14.4945 82.8874 12.7311V12.651C82.8396 10.933 81.4088 9.90168 79.5666 9.90168H79.4259C77.5146 9.95512 76.0732 11.0799 76.121 12.8407V12.9208C76.1688 14.6388 77.6022 15.7102 79.4471 15.7102ZM27.3601 28.4119C27.7716 23.5385 24.7693 21.2301 19.2585 19.2717C14.5627 17.6258 13.4186 16.9232 13.5779 15.0876V15.0075C13.6814 13.7678 14.791 12.8513 16.7633 12.8513C16.9518 12.8513 17.1508 12.8513 17.3552 12.8754C19.2612 13.0384 21.1087 13.88 23.0306 15.2506C23.4711 15.5795 23.9944 15.7775 24.541 15.8224C24.626 15.8224 24.7136 15.8224 24.8065 15.8224C25.4004 15.82 25.9785 15.6299 26.4593 15.279C26.9401 14.9281 27.2993 14.434 27.4861 13.8666C27.6729 13.2992 27.678 12.6871 27.5006 12.1166C27.3232 11.5461 26.9723 11.0461 26.4974 10.6872C24.0015 8.79651 21.0155 7.67283 17.8994 7.45164C17.4986 7.41958 17.1031 7.40088 16.7208 7.40088C11.6348 7.40088 7.86534 10.3399 7.46716 15.0476V15.1277C6.99996 20.677 10.4774 22.5446 15.9616 24.4603C20.5009 26.0634 21.3875 26.9344 21.2547 28.492V28.5722C21.13 30.0444 19.8293 30.8967 17.7481 30.8967C17.5145 30.8967 17.2756 30.8967 17.0234 30.8646C14.3264 30.6348 12.1073 29.4779 10.135 27.7413C9.65829 27.3287 9.06294 27.0806 8.43606 27.0332C8.35111 27.0332 8.26352 27.0332 8.17061 27.0332C7.45575 27.0184 6.76211 27.2781 6.2306 27.7595C5.6991 28.2408 5.36959 28.9078 5.30903 29.6249C5.27053 30.073 5.33692 30.5239 5.50288 30.9415C5.66884 31.3591 5.92975 31.7318 6.26466 32.0295C9.12528 34.4765 12.6745 35.9619 16.4155 36.2777C16.888 36.3177 17.3499 36.3364 17.8012 36.3364C23.0864 36.3364 26.9115 33.5952 27.3415 28.4814L27.3601 28.4119ZM71.5658 14.5506H71.396C70.6226 14.5514 69.8789 14.8499 69.3172 15.385C68.7556 15.92 68.4185 16.651 68.3751 17.4281L67.8681 26.5844C67.7141 29.3444 66.2754 30.7417 64.1518 30.7417H63.8624C61.5583 30.6135 60.2868 29.0558 60.4461 26.1756L60.9557 17.014C60.9992 16.2081 60.723 15.4178 60.188 14.8167C59.653 14.2155 58.9027 13.8527 58.1021 13.8078H57.9322C57.159 13.8081 56.4152 14.1065 55.8538 14.6417C55.2924 15.1769 54.9561 15.9082 54.914 16.6854L54.2982 27.768C54.0327 32.6894 56.52 35.8796 61.0911 36.1361C61.2504 36.1361 61.4043 36.1361 61.5556 36.1361C64.3456 36.1361 66.1108 34.6666 67.523 33.0341V33.2719C67.4796 34.0778 67.7557 34.8681 68.2907 35.4692C68.8258 36.0704 69.576 36.4332 70.3766 36.4781H70.5492C71.3147 36.4685 72.0481 36.167 72.6013 35.6344C73.1546 35.1018 73.4866 34.3778 73.5302 33.6085L74.4088 17.7621C74.4538 16.9571 74.1798 16.1669 73.6469 15.5649C73.1139 14.9629 72.3656 14.5981 71.5658 14.5506Z" fill="white"/>
</g>
<defs>
<clipPath id="clip0_206_5304">
<rect width="169" height="50" fill="white"/>
</clipPath>
</defs>
</svg>
