<svg width="46" height="46" viewBox="0 0 46 46" fill="none" xmlns="http://www.w3.org/2000/svg">
<path d="M0 23C0 10.2975 10.2975 0 23 0V0C35.7025 0 46 10.2975 46 23V23C46 35.7025 35.7025 46 23 46V46C10.2975 46 0 35.7025 0 23V23Z" fill="white"/>
<path fill-rule="evenodd" clip-rule="evenodd" d="M19.2273 15.8523C19.4469 15.6326 19.8031 15.6326 20.0227 15.8523L26.7727 22.6023C26.9924 22.8219 26.9924 23.1781 26.7727 23.3977L20.0227 30.1477C19.8031 30.3674 19.4469 30.3674 19.2273 30.1477C19.0076 29.9281 19.0076 29.5719 19.2273 29.3523L25.5795 23L19.2273 16.6477C19.0076 16.4281 19.0076 16.0719 19.2273 15.8523Z" fill="#3A434B"/>
</svg>
