<svg width="150" height="37" viewBox="0 0 150 37" fill="none" xmlns="http://www.w3.org/2000/svg">
<path d="M39.4131 13.0538H54.5984V15.887H48.6275V31.8138H45.3442V15.887H39.3998V13.0538H39.4131ZM53.9497 18.2304H56.7564V20.8517H56.8093C56.9101 20.4641 57.0855 20.0998 57.3257 19.7793C57.5846 19.4208 57.892 19.1 58.2392 18.8261C58.6009 18.5367 59.0022 18.3004 59.4307 18.1244C59.8558 17.9529 60.3095 17.863 60.7679 17.8597C61.1121 17.8597 61.3636 17.8729 61.496 17.8861C61.6284 17.8994 61.7608 17.9259 61.9064 17.9391V20.8252C61.6946 20.7855 61.4828 20.759 61.2577 20.7326C61.0424 20.7065 60.8258 20.6933 60.609 20.6928C60.1163 20.6928 59.6291 20.7966 59.1792 20.9973C58.7292 21.2019 58.331 21.5051 58.0141 21.8844C57.6614 22.3164 57.392 22.8102 57.2198 23.3407C57.0135 23.9865 56.9151 24.6619 56.9285 25.3398V31.8005H53.9364V18.2304H53.9497ZM75.6619 31.8138H72.7228V29.9206H72.6699C72.2931 30.6151 71.7228 31.1854 71.0282 31.5622C70.3538 31.96 69.587 32.1745 68.804 32.1845C67.0168 32.1845 65.7193 31.7476 64.925 30.8605C64.1306 29.9735 63.7334 28.6364 63.7334 26.8491V18.2304H66.7255V26.5578C66.7255 27.7493 66.9506 28.5966 67.4139 29.0865C67.8773 29.5763 68.5128 29.8279 69.3336 29.8279C69.8738 29.8477 70.4117 29.7482 70.9091 29.5366C71.3076 29.3635 71.6577 29.0953 71.9285 28.7555C72.201 28.4133 72.3953 28.0157 72.4978 27.5905C72.6183 27.1101 72.6762 26.6161 72.6699 26.1209V18.2436H75.6619V31.8138ZM80.759 27.4581C80.8517 28.3319 81.1827 28.9409 81.752 29.2983C82.3838 29.6605 83.1024 29.8436 83.8305 29.8279C84.1492 29.8229 84.4674 29.8008 84.7837 29.7617C85.1286 29.7218 85.4669 29.6373 85.7899 29.5101C86.0914 29.397 86.3599 29.2105 86.571 28.9673C86.778 28.7049 86.8774 28.3736 86.8491 28.0406C86.8475 27.8631 86.8091 27.6878 86.7362 27.526C86.6632 27.3642 86.5574 27.2193 86.4254 27.1006C86.1326 26.8376 85.7906 26.6351 85.4192 26.5048C84.9613 26.3433 84.4923 26.215 84.0159 26.1209C83.4863 26.015 82.9567 25.8958 82.4139 25.7767C81.8677 25.6565 81.3284 25.5062 80.7987 25.3266C80.3003 25.1637 79.831 24.9223 79.4086 24.6116C78.9949 24.3168 78.6587 23.9262 78.4289 23.4731C78.1774 23.0097 78.0582 22.4404 78.0582 21.752C78.0373 21.0921 78.2275 20.4428 78.601 19.8985C78.96 19.4002 79.4259 18.9885 79.9647 18.6937C80.5408 18.3835 81.1616 18.1647 81.8049 18.045C82.4427 17.9274 83.0894 17.8654 83.7378 17.8597C84.415 17.8588 85.09 17.9343 85.7502 18.0847C86.3679 18.2197 86.9556 18.4665 87.4845 18.8129C88.0008 19.1482 88.4388 19.5907 88.7687 20.1103C89.1295 20.6967 89.3514 21.3579 89.4175 22.0432H86.293C86.1474 21.3283 85.8296 20.8385 85.3133 20.6002C84.758 20.3429 84.1511 20.2161 83.5393 20.2295C83.2868 20.23 83.0347 20.2477 82.7846 20.2824C82.5049 20.3204 82.2299 20.3869 81.9638 20.481C81.7191 20.5729 81.4976 20.7175 81.3151 20.9047C81.1348 21.1033 81.0397 21.3648 81.0503 21.6328C81.0448 21.7998 81.0764 21.966 81.1428 22.1194C81.2092 22.2727 81.3087 22.4095 81.4342 22.5199C81.7284 22.7676 82.0648 22.9604 82.4272 23.0891C82.8851 23.2507 83.3541 23.379 83.8305 23.4731C84.3601 23.579 84.9029 23.6981 85.4589 23.8173C86.015 23.9364 86.5313 24.0953 87.0609 24.2674C87.5646 24.4274 88.0387 24.669 88.4642 24.9823C88.8722 25.2818 89.2108 25.6656 89.4572 26.1077C89.7262 26.6263 89.8584 27.205 89.8411 27.789C89.863 28.513 89.6695 29.2272 89.2851 29.8411C88.918 30.3982 88.429 30.8645 87.8552 31.2048C87.2465 31.562 86.5852 31.8211 85.8958 31.9726C85.1961 32.1296 84.4814 32.2095 83.7643 32.2109C82.9606 32.2202 82.1591 32.1222 81.3813 31.9197C80.7026 31.7451 80.0612 31.4491 79.4881 31.0459C78.9635 30.6571 78.5335 30.1547 78.2304 29.5763C77.9119 28.9248 77.7445 28.2098 77.7405 27.4845H80.759V27.4581ZM90.6355 18.2304H92.8994V14.1527H95.8914V18.2304H98.5922V20.4678H95.8914V27.7228C95.8894 27.997 95.9027 28.271 95.9311 28.5437C95.9525 28.7485 96.0156 28.9467 96.1165 29.1262C96.2171 29.2917 96.3712 29.4179 96.5534 29.4837C96.8082 29.5733 97.0778 29.6137 97.3477 29.6028C97.5596 29.6028 97.7714 29.6028 97.9832 29.5896C98.1974 29.5782 98.4102 29.5472 98.6187 29.4969V31.8138C98.2877 31.8535 97.9567 31.88 97.6522 31.9197C97.3315 31.9575 97.0087 31.9752 96.6858 31.9726C96.0428 31.9895 95.4007 31.9137 94.7793 31.7476C94.3517 31.6316 93.9631 31.403 93.654 31.0856C93.3742 30.7805 93.1821 30.4054 93.098 30C92.9946 29.5077 92.937 29.0069 92.9258 28.504V20.4943H90.6619V18.2304H90.6355ZM100.71 18.2304H103.544V20.0706H103.597C103.974 19.3224 104.595 18.7249 105.357 18.376C106.127 18.0277 106.962 17.8515 107.807 17.8597C108.879 17.8597 109.806 18.045 110.6 18.4289C111.374 18.7835 112.054 19.3139 112.586 19.9779C113.123 20.663 113.523 21.4451 113.764 22.2815C114.034 23.1925 114.168 24.1382 114.161 25.0883C114.164 25.9831 114.044 26.874 113.804 27.7361C113.585 28.553 113.222 29.3242 112.732 30.0132C112.253 30.6727 111.627 31.212 110.905 31.5887C110.099 32.0021 109.202 32.207 108.297 32.1845C107.857 32.1842 107.418 32.1443 106.986 32.0653C106.553 31.9857 106.131 31.8569 105.728 31.6814C105.327 31.5108 104.952 31.2834 104.616 31.0062C104.282 30.7345 103.992 30.413 103.756 30.0529H103.703V36.8314H100.71V18.2304ZM111.169 25.0353C111.17 24.4316 111.09 23.8305 110.931 23.248C110.785 22.6979 110.543 22.178 110.216 21.7123C109.907 21.2723 109.505 20.906 109.038 20.6399C108.539 20.3654 107.979 20.224 107.41 20.2295C106.152 20.2295 105.199 20.6664 104.563 21.5401C103.928 22.4139 103.61 23.579 103.61 25.0353C103.602 25.6796 103.686 26.3216 103.861 26.9417C104.01 27.4901 104.266 28.0033 104.616 28.451C104.936 28.8652 105.343 29.2042 105.808 29.4439C106.331 29.6966 106.907 29.8234 107.489 29.8142C108.07 29.805 108.641 29.6601 109.157 29.391C109.62 29.1189 110.018 28.7483 110.322 28.3054C110.635 27.8432 110.86 27.327 110.984 26.7829C111.106 26.2083 111.168 25.6227 111.169 25.0353ZM116.452 13.0538H119.444V15.887H116.452V13.0538ZM116.452 18.2304H119.444V31.8138H116.452V18.2304ZM122.118 13.0538H125.11V31.8138H122.118V13.0538ZM134.285 32.1845C133.292 32.1999 132.306 32.0153 131.386 31.6416C130.565 31.3094 129.828 30.802 129.224 30.1548C128.62 29.5076 128.165 28.7364 127.891 27.895C127.575 26.9658 127.418 25.9901 127.427 25.0088C127.42 24.0363 127.576 23.0695 127.891 22.1492C128.176 21.3108 128.631 20.5402 129.228 19.8853C129.831 19.2406 130.567 18.7346 131.386 18.4025C133.251 17.6787 135.319 17.6787 137.184 18.4025C138.005 18.7347 138.743 19.2422 139.346 19.8893C139.95 20.5365 140.405 21.3078 140.68 22.1492C140.994 23.0695 141.151 24.0363 141.143 25.0088C141.152 25.9901 140.995 26.9658 140.68 27.895C140.394 28.7333 139.939 29.5039 139.342 30.1589C138.739 30.8035 138.003 31.3095 137.184 31.6416C136.264 32.0153 135.278 32.1999 134.285 32.1845ZM134.285 29.8146C134.89 29.8271 135.488 29.6811 136.019 29.391C136.498 29.1191 136.91 28.7437 137.224 28.2921C137.545 27.8243 137.782 27.3048 137.926 26.7564C138.226 25.6152 138.226 24.4157 137.926 23.2745C137.79 22.7231 137.552 22.2021 137.224 21.7387C136.909 21.2912 136.497 20.9201 136.019 20.6531C135.484 20.3747 134.889 20.2294 134.285 20.2294C133.681 20.2294 133.086 20.3747 132.551 20.6531C132.076 20.9241 131.665 21.2944 131.346 21.7387C131.023 22.2051 130.786 22.7251 130.644 23.2745C130.344 24.4157 130.344 25.6152 130.644 26.7564C130.782 27.3068 131.02 27.8273 131.346 28.2921C131.661 28.7437 132.072 29.1191 132.551 29.391C133.08 29.6871 133.679 29.8336 134.285 29.8146ZM142.017 18.2304H144.281V14.1527H147.273V18.2304H149.974V20.4678H147.273V27.7228C147.271 27.997 147.284 28.271 147.312 28.5437C147.334 28.7485 147.397 28.9467 147.498 29.1262C147.598 29.2917 147.753 29.4179 147.935 29.4837C148.19 29.5733 148.459 29.6137 148.729 29.6028C148.941 29.6028 149.153 29.6028 149.364 29.5896C149.579 29.5782 149.791 29.5472 150 29.4969V31.8138C149.669 31.8535 149.338 31.88 149.034 31.9197C148.713 31.9575 148.39 31.9752 148.067 31.9726C147.424 31.9895 146.782 31.9137 146.161 31.7476C145.733 31.6316 145.344 31.403 145.035 31.0856C144.755 30.7805 144.563 30.4054 144.479 30C144.376 29.5077 144.318 29.0069 144.307 28.504V20.4943H142.043V18.2304H142.017Z" fill="black"/>
<path d="M35.9179 13.0538H22.2021L17.9656 0L13.7158 13.0538L0 13.0406L11.1077 21.1165L6.8579 34.1571L17.9656 26.0944L29.06 34.1571L24.8235 21.1165L35.9179 13.0538Z" fill="#00B67A"/>
<path d="M25.7767 24.0688L24.8235 21.1165L17.9656 26.0944L25.7767 24.0688Z" fill="#005128"/>
</svg>
